<svg width="22" height="26" viewBox="0 0 22 26" fill="none" xmlns="http://www.w3.org/2000/svg">
<path d="M9.60708 21.3127L5.51819 16.9743L6.76264 15.6443L9.60708 18.621L15.0589 12.7943L16.3034 14.156L9.60708 21.3127ZM2.11079 25.9993C1.63671 25.9993 1.2219 25.8093 0.866341 25.4293C0.510786 25.0493 0.333008 24.606 0.333008 24.0993V4.46602C0.333008 3.95935 0.510786 3.51602 0.866341 3.13602C1.2219 2.75602 1.63671 2.56602 2.11079 2.56602H4.03671V0.666016H5.96264V2.56602H16.0367V0.666016H17.9626V2.56602H19.8886C20.3626 2.56602 20.7774 2.75602 21.133 3.13602C21.4886 3.51602 21.6663 3.95935 21.6663 4.46602V24.0993C21.6663 24.606 21.4886 25.0493 21.133 25.4293C20.7774 25.8093 20.3626 25.9993 19.8886 25.9993H2.11079ZM2.11079 24.0993H19.8886V10.4827H2.11079V24.0993Z" fill="#00A0E9"/>
</svg>
