<svg width="24" height="20" viewBox="0 0 24 20" fill="none" xmlns="http://www.w3.org/2000/svg">
<path d="M17.3 6.425V6.55H17.425H18.925H19.05V6.425V4.925V4.8H18.925H17.425H17.3V4.925V6.425ZM17.3 10.7V10.825H17.425H18.925H19.05V10.7V9.2V9.075H18.925H17.425H17.3V9.2V10.7ZM17.3 14.95V15.075H17.425H18.925H19.05V14.95V13.45V13.325H18.925H17.425H17.3V13.45V14.95ZM15.9 19V19.125H16.025H23H23.125V19V1V0.875H23H10.125H10V1V4.25V4.31508L10.0533 4.3524L11.5533 5.4024L11.75 5.54008V5.3V2.625H21.375V17.375H16.025H15.9V17.5V19ZM0.875 19V19.125H1H6.45H6.575V19V14.1H8.975V19V19.125H9.1H14.525H14.65V19V9.25V9.18589L14.5979 9.14849L7.84794 4.29849L7.77513 4.24618L7.70224 4.29836L0.927239 9.14836L0.875 9.18576V9.25V19ZM4.95 12.35H4.825V12.475V17.375H2.625V10.0997L7.77493 6.40391L12.9 10.0891V17.375H10.725V12.475V12.35H10.6H4.95Z" fill="#00A0E9" stroke="#00A0E9" stroke-width="0.25"/>
</svg>
