<svg width="20" height="20" viewBox="0 0 20 20" fill="none" xmlns="http://www.w3.org/2000/svg">
<path d="M9.99985 19.15C15.0545 19.15 19.1497 15.0543 19.1497 10C19.1497 4.94568 15.0545 0.85 9.99985 0.85C4.9463 0.85 0.85 4.94575 0.85 10C0.85 15.0543 4.9463 19.15 9.99985 19.15Z" stroke="#00A0E9" stroke-width="1.7" stroke-miterlimit="10"/>
<path fill-rule="evenodd" clip-rule="evenodd" d="M6.89562 12.6212C7.13713 12.8749 7.27935 13.0814 7.52561 13.521L7.57562 13.6109C7.57569 13.6108 7.57575 13.6108 7.57582 13.6107C7.26394 13.0469 7.11994 12.843 6.796 12.519V12.5193C6.83118 12.5544 6.86424 12.5882 6.89562 12.6212ZM10.4556 9.42402C10.4529 9.51269 10.4502 9.60495 10.4477 9.6992C10.4388 10.0256 10.4316 10.3759 10.4316 10.6829V13.8749C10.4316 14.2831 10.4012 14.7217 10.359 15.1069C10.3553 15.1406 10.3515 15.174 10.3476 15.2069H10.348C10.396 14.7989 10.432 14.319 10.432 13.875V10.683C10.432 10.287 10.444 9.81902 10.456 9.42302C10.4559 9.42336 10.4557 9.42369 10.4556 9.42402ZM11.6801 9.30397C11.7184 9.39938 11.7568 9.49228 11.7955 9.58307C12.1793 10.4851 12.5868 11.1779 13.2516 12.0389C13.6797 12.5942 13.9962 12.9375 14.6634 13.5528L14.7396 13.6229C14.7396 13.6228 14.7397 13.6228 14.7397 13.6227C14.0199 12.9629 13.6959 12.6149 13.252 12.039C12.52 11.091 12.1 10.347 11.68 9.30302C11.68 9.30334 11.68 9.30365 11.6801 9.30397ZM15.3156 6.43507V6.43488C15.2828 6.43885 15.2495 6.44266 15.2156 6.4463C14.8402 6.48669 14.3999 6.50688 13.9596 6.50688H11.728V6.50702H13.96C14.4398 6.50702 14.9197 6.48304 15.3156 6.43507ZM11.7996 4.21502C11.7996 4.21498 11.7996 4.21493 11.7996 4.21488H10.3596C10.3647 4.24845 10.3695 4.28177 10.3741 4.31488C10.4235 4.67227 10.4436 5.00547 10.4436 5.37888V6.50688H8.66762C8.24185 6.50688 7.81607 6.48702 7.47162 6.45632C7.43746 6.45328 7.4041 6.45013 7.37162 6.44688V7.83888C7.37175 7.83886 7.37187 7.83885 7.372 7.83883V6.44702C7.732 6.48302 8.2 6.50702 8.668 6.50702H10.444V5.37902C10.444 4.97102 10.42 4.61102 10.36 4.21502H11.7996ZM10.0356 7.76702C10.0233 7.80028 10.0107 7.83357 9.99796 7.86688C9.38947 9.45266 8.22952 11.0926 6.89562 12.2308C6.86252 12.259 6.82931 12.2869 6.796 12.3146V12.315C8.2 11.151 9.424 9.42302 10.036 7.76702H10.0356ZM7.93561 4.40691L7.93562 4.40688L6.56762 3.99888C6.56164 4.03207 6.5555 4.06502 6.54921 4.09774C6.4168 4.78675 6.2153 5.37879 5.87162 6.13488C5.37962 7.23888 4.81562 8.07888 3.99962 8.94288C4.21225 9.36813 4.36225 9.76208 4.50804 10.2902C4.51858 10.3283 4.5291 10.3672 4.53962 10.4069L4.53988 10.4066C4.38392 9.81881 4.22794 9.39891 4 8.94302C4.816 8.07902 5.38 7.23902 5.872 6.13502C6.232 5.34302 6.436 4.73102 6.568 3.99902L7.93561 4.40691ZM5.51158 9.07573C5.51172 9.07549 5.51186 9.07526 5.512 9.07502C5.488 9.56702 5.488 9.81902 5.488 10.419V13.791C5.488 14.379 5.46401 14.7389 5.41602 15.1949H5.41562L5.4259 15.0949C5.46705 14.6842 5.48762 14.3353 5.48762 13.7909V10.4189C5.48762 9.90969 5.48762 9.65113 5.50229 9.28382C5.5049 9.21856 5.50797 9.14987 5.51158 9.07573ZM7.64328 13.6845C8.86444 12.5624 9.64661 11.4883 10.3416 9.9407C10.3357 10.1933 10.3316 10.4503 10.3316 10.6829V13.8749C10.3316 14.314 10.296 14.79 10.2483 15.1952L10.2352 15.3069H11.9034L11.8866 15.1923C11.8277 14.7918 11.8156 14.4138 11.8156 13.8629V10.5149C11.8156 10.2606 11.8126 10.0518 11.8065 9.85799C12.1652 10.6568 12.5614 11.3086 13.1725 12.1C13.6208 12.6816 13.949 13.0338 14.672 13.6966L14.768 13.7845L14.8282 13.6692C15.1001 13.1492 15.3115 12.8553 15.704 12.3915L15.7708 12.3125L15.6896 12.2484C14.8437 11.5812 14.1897 10.9271 13.5591 10.1063C12.9908 9.35597 12.6952 8.85791 12.2637 7.86688H13.9956C14.4607 7.86688 14.9244 7.89075 15.3032 7.93811L15.4156 7.95216V6.32203L15.3036 6.33561C14.9126 6.383 14.4368 6.40688 13.9596 6.40688H11.8276V5.37888C11.8276 4.94869 11.8396 4.60672 11.8984 4.23032L11.9165 4.11488H10.2433L10.2607 4.22986C10.3199 4.62033 10.3436 4.97528 10.3436 5.37888V6.40688H8.66762C8.20264 6.40688 7.73797 6.38302 7.38157 6.34738L7.30486 6.3397C7.42658 6.04807 7.54192 5.74188 7.69381 5.30449C7.8049 5.00154 7.86452 4.8529 7.96767 4.59576L8.02847 4.44402L8.06914 4.34235L6.48905 3.87109L6.46921 3.98113C6.33899 4.70323 6.13767 5.30791 5.78028 6.09417C5.29291 7.18778 4.73524 8.01835 3.92692 8.87422L3.87891 8.92506L3.91018 8.9876C4.13469 9.43663 4.28844 9.85009 4.44297 10.4325L4.49163 10.616L4.61542 10.4721C4.96709 10.0634 5.16317 9.81738 5.39627 9.45328C5.38762 9.74056 5.38762 9.99287 5.38762 10.4189V13.7909C5.38762 14.3751 5.36383 14.7316 5.31617 15.1844L5.30454 15.2949H6.96735L6.95501 15.1838C6.90762 14.7573 6.89562 14.3177 6.89562 13.8029V12.7682C7.10238 12.9975 7.24067 13.212 7.48812 13.6593L7.54966 13.7705L7.64328 13.6845ZM6.89562 7.24911C7.04802 6.92318 7.16375 6.67243 7.27162 6.41861V7.95173L7.38365 7.93815C7.77487 7.89073 8.25076 7.86688 8.66762 7.86688H9.89076C9.29471 9.39993 8.17969 10.9825 6.89562 12.0988V7.24911Z" fill="#00A0E9"/>
</svg>
