<svg width="880" height="485" viewBox="0 0 880 485" fill="none" xmlns="http://www.w3.org/2000/svg">
<g clip-path="url(#clip0_9731_308491)">
<path d="M936.984 0H-57V485H936.984V0Z" fill="#BBBBBB"/>
<path fill-rule="evenodd" clip-rule="evenodd" d="M494.002 190.157H388.075C386.908 190.164 385.754 190.402 384.679 190.856C383.603 191.309 382.628 191.97 381.808 192.801C380.988 193.632 380.34 194.616 379.901 195.697C379.461 196.778 379.239 197.936 379.247 199.103V288.566C379.231 290.923 380.152 293.189 381.807 294.867C383.462 296.545 385.716 297.496 388.073 297.512H494C495.167 297.505 496.321 297.267 497.396 296.813C498.472 296.36 499.447 295.699 500.267 294.868C501.087 294.037 501.735 293.053 502.174 291.972C502.614 290.891 502.836 289.734 502.828 288.566V199.103C502.844 196.746 501.923 194.48 500.268 192.802C498.613 191.125 496.359 190.173 494.002 190.157V190.157ZM388.075 181.211C385.741 181.226 383.432 181.701 381.281 182.608C379.13 183.515 377.179 184.837 375.539 186.499C373.899 188.16 372.603 190.128 371.724 192.291C370.845 194.454 370.4 196.768 370.415 199.103V288.566C370.4 290.901 370.845 293.215 371.724 295.378C372.603 297.541 373.899 299.509 375.539 301.17C377.179 302.832 379.13 304.154 381.281 305.061C383.432 305.968 385.741 306.443 388.075 306.458H494.002C498.715 306.425 503.222 304.522 506.532 301.167C509.841 297.811 511.683 293.279 511.652 288.566V199.103C511.683 194.39 509.841 189.858 506.532 186.503C503.222 183.147 498.715 181.244 494.002 181.211H388.075Z" fill="#F8F9FA"/>
<path d="M466.12 238.616C466.819 237.906 467.725 237.437 468.708 237.276C469.692 237.116 470.7 237.272 471.588 237.723L507.39 256.427V299.656H374.682V280.443L399.763 257.829C400.532 257.048 401.55 256.56 402.641 256.451C403.732 256.342 404.827 256.618 405.735 257.232L430.952 274.255L466.12 238.626V238.616Z" fill="#F8F9FA"/>
<path fill-rule="evenodd" clip-rule="evenodd" d="M410.143 234.886C412.804 234.92 415.416 234.162 417.645 232.709C419.875 231.255 421.622 229.171 422.664 226.722C423.707 224.273 423.997 221.569 423.499 218.955C423 216.34 421.736 213.933 419.866 212.038C417.996 210.144 415.605 208.849 412.997 208.317C410.389 207.786 407.682 208.042 405.219 209.052C402.757 210.063 400.651 211.783 399.169 213.994C397.687 216.205 396.896 218.807 396.896 221.469C396.883 223.219 397.216 224.956 397.875 226.578C398.533 228.2 399.505 229.677 400.735 230.923C401.965 232.169 403.428 233.161 405.042 233.842C406.655 234.522 408.387 234.878 410.137 234.889L410.143 234.886Z" fill="#F8F9FA"/>
</g>
<defs>
<clipPath id="clip0_9731_308491">
<rect width="880" height="485" fill="white"/>
</clipPath>
</defs>
</svg>
