<svg width="104" height="24" viewBox="0 0 104 24" fill="none" xmlns="http://www.w3.org/2000/svg">
<g clip-path="url(#clip0_8339_48713)">
<path d="M13.4263 6.35416C12.3199 6.93612 11.4714 7.81984 10.8591 8.99455C10.408 7.92761 9.53797 7.05467 8.25977 6.35416C9.34463 5.79375 10.2039 4.9208 10.8591 3.74609C11.3747 4.79147 12.234 5.65364 13.4263 6.35416ZM17.712 8.07849C16.8205 8.55269 16.0364 9.4903 15.3382 10.8805C14.9086 9.64118 14.0922 8.71434 12.9 8.07849C13.9204 7.45342 14.726 6.49426 15.3382 5.21178C15.6175 5.79375 15.9612 6.31105 16.3801 6.74213C16.8312 7.17322 17.2824 7.62585 17.712 8.07849Z" fill="#00A0E9"/>
<path d="M1.9549 5.6543C2.45974 5.67585 2.87864 5.85906 3.2331 6.19315C3.58756 6.53802 3.77016 6.95833 3.79164 7.46485V12.3361H14.9195C15.4351 12.3361 15.8862 12.5085 16.2514 12.8642C16.6059 13.2306 16.7777 13.6832 16.7777 14.2006C16.7777 14.7179 16.5951 15.1597 16.2407 15.5261C15.8862 15.8926 15.4351 16.065 14.9195 16.065H3.7809V21.1087C3.67349 22.2187 3.06124 22.8222 1.94416 22.9192C1.42858 22.9192 0.977452 22.7468 0.60151 22.4019C0.225568 22.0571 0.0322266 21.626 0.0322266 21.1087V7.46485C0.0537089 6.94755 0.24705 6.51647 0.612251 6.1716C0.977452 5.82673 1.42858 5.6543 1.94416 5.6543" fill="#00A0E9"/>
<path d="M20.1074 7.96991C20.1074 7.45261 20.29 7.01075 20.6445 6.64432C21.0097 6.2779 21.4393 6.10547 21.9656 6.10547H33.6198C33.7273 6.10547 33.8454 6.10547 33.9528 6.1378H34.1247C35.4244 6.17013 36.4877 6.52578 37.3148 7.18318C38.1526 7.84058 38.7434 8.58421 39.1193 9.42482C39.4845 10.2654 39.6779 11.1061 39.6779 11.9574C39.6779 12.8088 39.4953 13.7141 39.1408 14.5439C38.7756 15.3846 38.1741 16.1282 37.3363 16.7856C36.4985 17.443 35.4244 17.7663 34.1354 17.7448H32.5779C32.0624 17.7448 31.622 17.5615 31.2783 17.1843C30.9131 16.8287 30.7197 16.3976 30.7197 15.8803C30.7197 15.363 30.9023 14.9211 31.2568 14.5547C31.622 14.1883 32.0624 14.0159 32.5779 14.0159H34.2965C34.651 14.0159 34.941 13.8973 35.1666 13.671C35.4029 13.4339 35.564 13.1645 35.6821 12.8627C35.7896 12.561 35.854 12.2484 35.854 11.9251C35.854 11.6234 35.8003 11.3216 35.6821 11.0198C35.5747 10.7181 35.4029 10.4486 35.1666 10.2115C34.9303 9.97445 34.6403 9.8559 34.2965 9.83435H21.9764C21.4608 9.83435 21.0204 9.65114 20.6767 9.27394C20.3115 8.9183 20.1182 8.48721 20.1182 7.96991M28.4426 11.2246C28.9474 11.2462 29.3448 11.4294 29.6456 11.7635C29.9464 12.1083 30.086 12.5286 30.043 13.0352L29.8712 14.5116C29.6886 15.8264 29.3448 17.0766 28.84 18.2405C28.303 19.4152 27.5618 20.3959 26.6058 21.2042C25.6499 22.0125 24.5328 22.4544 23.2331 22.5298H22.0086C21.5038 22.5082 21.0849 22.3358 20.7412 21.9909C20.3974 21.6461 20.2148 21.2258 20.2041 20.7192C20.2041 20.2019 20.376 19.7493 20.7197 19.3829C21.0634 19.0165 21.493 18.8117 22.0086 18.8009H22.782C23.4802 18.7686 24.1031 18.4992 24.6295 17.9926C25.1558 17.4861 25.521 16.9257 25.7251 16.2791C25.9291 15.6432 26.0795 14.9427 26.1655 14.1775L26.2729 13.0352C26.3695 12.5179 26.6166 12.0868 27.0247 11.7419C27.4329 11.397 27.8948 11.2246 28.4104 11.2246" fill="#00A0E9"/>
<path d="M44.06 18.8005L48.5283 13.7568V12.3881H45.4993C44.9837 12.3881 44.5433 12.2049 44.1781 11.8493C43.8129 11.4829 43.6411 11.041 43.6411 10.5237C43.6411 10.0064 43.8129 9.55377 44.1674 9.18734C44.5326 8.8317 44.9837 8.65926 45.4993 8.65926H48.5283V7.12891C48.5498 6.62239 48.7324 6.20208 49.0868 5.85722C49.4413 5.51235 49.8602 5.32914 50.365 5.31836C50.8806 5.31836 51.3318 5.49079 51.697 5.83566C52.0622 6.18053 52.2662 6.61161 52.277 7.12891V10.1142C53.4585 9.21967 54.64 8.74548 55.8323 8.67004H57.465C58.5391 8.67004 59.4628 8.99336 60.2362 9.62921C61.0096 10.2651 61.407 11.1811 61.4285 12.3774V17.2271C61.4822 18.2509 62.0192 18.7466 63.0397 18.7359C63.5445 18.8329 63.9204 19.0915 64.1782 19.5334C64.436 19.9645 64.5327 20.4387 64.4575 20.9452C64.1567 22.0552 63.4586 22.5617 62.3522 22.454C59.2265 22.066 57.6691 20.2878 57.6905 17.1301V13.7568C57.7228 12.8839 57.3039 12.442 56.4123 12.4205H55.886C55.1878 12.4528 54.3715 12.927 53.4478 13.8107C53.0074 14.2418 52.61 14.619 52.277 14.9531V21.1392C52.277 21.6565 52.0836 22.0875 51.7077 22.4324C51.3318 22.7773 50.8806 22.9497 50.365 22.9497C49.2587 22.8527 48.6465 22.2492 48.5283 21.1392V19.2208L46.7238 21.3116C46.4445 21.6241 46.1438 21.8505 45.8215 21.9798C45.4993 22.1091 45.0911 22.0768 44.6185 21.872C44.1566 21.6672 43.8344 21.3224 43.6518 20.8374C43.4692 20.3524 43.4799 19.8675 43.684 19.3933C43.7914 19.167 43.9203 18.9837 44.0707 18.8329" fill="#00A0E9"/>
<path d="M98.6362 9.21947C98.1421 9.71521 98.1421 10.5127 98.6362 10.9977C99.1303 11.4934 99.9251 11.4934 100.408 10.9977C100.903 10.5019 100.903 9.70444 100.408 9.21947C99.9144 8.72372 99.1196 8.72372 98.6362 9.21947Z" fill="#00A0E9"/>
<path d="M103.556 10.1469C104.168 8.99372 104.007 7.53881 103.04 6.56887C102.074 5.59892 100.613 5.42649 99.4637 6.05156C98.2929 5.30794 96.7247 5.43727 95.7042 6.46109C94.6838 7.48492 94.5549 9.05838 95.2961 10.2331C94.802 11.1491 94.8127 12.2592 95.3391 13.1752L86.7783 21.7538L87.9061 22.8854L89.2381 21.5383L90.9352 23.2411L92.3423 21.8293L90.6451 20.1265L91.9126 18.8548L93.6097 20.5576L95.0168 19.1458L93.3197 17.443L96.4561 14.2961C96.5313 14.3392 96.6172 14.3931 96.6924 14.4254L96.7676 14.4577H96.7999C96.9502 14.5332 97.0899 14.5655 97.1973 14.5978H97.208L97.3262 14.6301H97.3584C97.498 14.6625 97.6269 14.6733 97.7451 14.684H97.8955H97.9277C98.0673 14.684 98.1962 14.684 98.3036 14.6625L98.4433 14.6409H98.4755C98.5936 14.6086 98.7225 14.587 98.8299 14.5439H98.8514L98.9911 14.49H99.0125C99.1307 14.4362 99.2488 14.3823 99.3563 14.3284C100.527 15.072 102.095 14.9427 103.116 13.9189C104.136 12.895 104.276 11.3108 103.524 10.1361M101.988 12.7873C101.429 13.3477 100.527 13.3477 99.9578 12.7873C99.6785 12.5071 99.2488 12.4747 98.9266 12.701L98.8729 12.7442L98.8299 12.7765L98.6796 12.8843L98.5936 12.9381L98.4433 13.0028L98.3466 13.0351L98.1855 13.0782H98.0888L97.9277 13.0998H97.831L97.6591 13.0782L97.584 13.0567C97.498 13.0351 97.4443 13.0136 97.4014 13.0028L97.3477 12.9812H97.3369L97.1543 12.8843H97.1328L97.1221 12.8627C97.0469 12.8088 96.9825 12.7549 96.9287 12.701H96.918C96.3809 12.1514 96.3595 11.2892 96.8536 10.7288C97.1328 10.4163 97.1113 9.93133 96.8213 9.64034C96.2628 9.06916 96.2628 8.16388 96.8213 7.60347C97.3799 7.04306 98.2929 7.04306 98.8514 7.60347C99.1522 7.90523 99.6248 7.92678 99.9363 7.64658C100.495 7.15083 101.354 7.17238 101.891 7.71124C102.428 8.2501 102.45 9.12304 101.945 9.68345C101.687 9.97443 101.676 10.3947 101.913 10.7073C101.945 10.7504 101.999 10.7827 102.031 10.815C102.557 11.3755 102.546 12.2592 101.999 12.8088" fill="#00A0E9"/>
<path d="M87.9595 2.86197C86.8531 3.44393 86.0046 4.32766 85.3923 5.50236C84.9412 4.43543 84.0712 3.56248 82.793 2.86197C83.8778 2.30156 84.7371 1.42861 85.3923 0.253906C85.9079 1.29929 86.7672 2.16146 87.9595 2.86197ZM92.2452 4.58631C91.3537 5.0605 90.5696 5.99811 89.8714 7.38836C89.4418 6.14899 88.6254 5.22216 87.4332 4.58631C88.4536 3.96123 89.2592 3.00207 89.8714 1.71959C90.1507 2.30156 90.4944 2.81886 90.9133 3.24994C91.3644 3.68103 91.8156 4.13367 92.2452 4.58631Z" fill="#00A0E9"/>
<path d="M70.9245 17.2171V7.47462C70.903 6.95732 70.7096 6.52623 70.3444 6.18136C69.9792 5.8365 69.5281 5.66406 69.0125 5.66406C68.5077 5.68562 68.0888 5.86883 67.7343 6.20292C67.3799 6.54779 67.1973 6.96809 67.1758 7.47462V17.1094C67.1973 18.5212 67.541 19.9976 68.2069 21.5388C68.744 22.5087 69.5496 22.8105 70.6237 22.4548C71.0856 22.2285 71.4293 21.8836 71.6334 21.4202C71.8482 20.9568 71.8482 20.4934 71.6441 20.03C71.1608 18.9522 70.9245 18.0146 70.9245 17.2171Z" fill="#00A0E9"/>
<path d="M86.6813 15.17C86.3161 14.879 85.8757 14.7389 85.3602 14.7389H84.329V13.4887H85.2957C85.8113 13.4887 86.2517 13.3379 86.6169 13.0469C86.9821 12.7451 87.1539 12.3787 87.1539 11.9368C87.1539 11.495 86.9821 11.1501 86.6276 10.8483C86.2624 10.5466 85.8113 10.4065 85.2957 10.4065H84.329V9.21022H85.2957C85.8113 9.21022 86.2517 9.05934 86.6169 8.7468C86.9821 8.44504 87.1539 8.07862 87.1539 7.66909C87.1539 7.25956 86.9821 6.87159 86.6276 6.55905C86.2624 6.25729 85.8113 6.11719 85.2957 6.11719H74.7479C74.2323 6.11719 73.7919 6.26807 73.4267 6.5806C73.0615 6.88236 72.8896 7.24878 72.8896 7.67987C72.8896 8.11095 73.0722 8.45582 73.4482 8.76836C73.8026 9.07012 74.2323 9.21022 74.7479 9.21022H80.5803V10.4065H74.7479C74.2323 10.4065 73.7919 10.5574 73.4267 10.8483C73.0615 11.1501 72.8896 11.5057 72.8896 11.9368C72.8896 12.3679 73.0722 12.7559 73.4482 13.0469C73.8026 13.3486 74.2323 13.4887 74.7479 13.4887H80.5803V14.7389H78.0776C76.8961 14.7389 75.8864 14.976 75.0486 15.4394C74.2108 15.9028 73.6093 16.4309 73.2441 17.0129C72.8789 17.5948 72.6855 18.1876 72.6855 18.7803C72.6855 19.4269 72.8681 20.052 73.2226 20.634C73.5878 21.2159 74.1893 21.7332 75.0379 22.1751C75.8327 22.6169 76.8424 22.8756 78.0669 22.9295H79.2914C80.5911 22.854 81.5578 22.5631 82.2237 22.0673C82.8789 21.5608 83.3945 20.8926 83.7597 20.0304C84.039 19.3407 84.2108 18.5971 84.286 17.7996H85.3387C85.8542 17.7996 86.2946 17.6487 86.6384 17.3577C87.0036 17.0991 87.1969 16.7326 87.1969 16.2692C87.1969 15.8058 87.0143 15.4609 86.6598 15.17H86.6813ZM78.7865 18.7911V20.2137C78.7865 20.4939 78.561 20.7202 78.2817 20.7202C78.0024 20.7202 77.7769 20.4939 77.7769 20.2137V18.7911C77.4869 18.6186 77.2935 18.3061 77.2935 17.9397C77.2935 17.39 77.7339 16.9482 78.2817 16.9482C78.8295 16.9482 79.2699 17.39 79.2699 17.9397C79.2699 18.3061 79.0766 18.6186 78.7758 18.7911H78.7865Z" fill="#00A0E9"/>
</g>
<defs>
<clipPath id="clip0_8339_48713">
<rect width="104" height="24" fill="white"/>
</clipPath>
</defs>
</svg>
