<svg width="16" height="19" viewBox="0 0 16 19" fill="none" xmlns="http://www.w3.org/2000/svg">
<path d="M0 13.5V4C0 3.31667 0.158333 2.72083 0.475 2.2125C0.791667 1.70417 1.27917 1.2875 1.9375 0.9625C2.59583 0.6375 3.42917 0.395833 4.4375 0.2375C5.44583 0.0791667 6.63333 0 8 0C9.43333 0 10.6542 0.075 11.6625 0.225C12.6708 0.375 13.4958 0.6125 14.1375 0.9375C14.7792 1.2625 15.25 1.675 15.55 2.175C15.85 2.675 16 3.28333 16 4V13.5C16 14.4833 15.6625 15.3125 14.9875 15.9875C14.3125 16.6625 13.4833 17 12.5 17L14 18.5V19H12.25L10.25 17H5.75L3.75 19H2V18.5L3.5 17C2.51667 17 1.6875 16.6625 1.0125 15.9875C0.3375 15.3125 0 14.4833 0 13.5ZM8 1.5C6 1.5 4.55833 1.62917 3.675 1.8875C2.79167 2.14583 2.15833 2.51667 1.775 3H14.3C14 2.55 13.3625 2.1875 12.3875 1.9125C11.4125 1.6375 9.95 1.5 8 1.5ZM1.5 8.375H7.35V4.5H1.5V8.375ZM12.5 9.875H1.5H14.5H12.5ZM8.85 8.375H14.5V4.5H8.85V8.375ZM4.375 14.125C4.75833 14.125 5.08333 13.9917 5.35 13.725C5.61667 13.4583 5.75 13.1333 5.75 12.75C5.75 12.3667 5.61667 12.0417 5.35 11.775C5.08333 11.5083 4.75833 11.375 4.375 11.375C3.99167 11.375 3.66667 11.5083 3.4 11.775C3.13333 12.0417 3 12.3667 3 12.75C3 13.1333 3.13333 13.4583 3.4 13.725C3.66667 13.9917 3.99167 14.125 4.375 14.125ZM11.625 14.125C12.0083 14.125 12.3333 13.9917 12.6 13.725C12.8667 13.4583 13 13.1333 13 12.75C13 12.3667 12.8667 12.0417 12.6 11.775C12.3333 11.5083 12.0083 11.375 11.625 11.375C11.2417 11.375 10.9167 11.5083 10.65 11.775C10.3833 12.0417 10.25 12.3667 10.25 12.75C10.25 13.1333 10.3833 13.4583 10.65 13.725C10.9167 13.9917 11.2417 14.125 11.625 14.125ZM3.5 15.625H12.5C13.0667 15.625 13.5417 15.4167 13.925 15C14.3083 14.5833 14.5 14.0833 14.5 13.5V9.875H1.5V13.5C1.5 14.0833 1.69167 14.5833 2.075 15C2.45833 15.4167 2.93333 15.625 3.5 15.625ZM8 3H14.3H1.775H8Z" fill="#00A0E9"/>
</svg>
