<svg width="16" height="20" viewBox="0 0 16 20" fill="none" xmlns="http://www.w3.org/2000/svg">
<path d="M7.125 19V19.125H7.25H8.75H8.875V19V15.375H14H14.125V15.25V13.75V13.625H14H8.875V11.375H14H14.125V11.25V9.75V9.625H14H9.70176L15.1057 1.06674L15.2268 0.875H15H13.225H13.1561L13.1193 0.933263L8 9.04087L2.88069 0.933263L2.84391 0.875H2.775H1H0.773238L0.894307 1.06674L6.29824 9.625H2H1.875V9.75V11.25V11.375H2H7.125V13.625H2H1.875V13.75V15.25V15.375H2H7.125V19Z" fill="#00A0E9" stroke="#00A0E9" stroke-width="0.25"/>
</svg>
