<svg width="200" height="58" viewBox="0 0 200 58" fill="none" xmlns="http://www.w3.org/2000/svg">
<path d="M192.593 58H7.40741C3.33519 58 0 54.7357 0 50.75V7.25C0 3.26431 3.33519 -1.90735e-06 7.40741 -1.90735e-06H192.593C196.665 -1.90735e-06 200 3.26431 200 7.25V50.75C200 54.7357 196.665 58 192.593 58Z" fill="#222222"/>
<path d="M192.593 1.16181C196.022 1.16181 198.813 3.89325 198.813 7.25V50.75C198.813 54.1067 196.022 56.8382 192.593 56.8382H7.40741C3.97778 56.8382 1.18704 54.1067 1.18704 50.75V7.25C1.18704 3.89325 3.97778 1.16181 7.40741 1.16181H192.593ZM192.593 -1.90735e-06H7.40741C3.33519 -1.90735e-06 0 3.26431 0 7.25V50.75C0 54.7357 3.33519 58 7.40741 58H192.593C196.665 58 200 54.7357 200 50.75V7.25C200 3.26431 196.665 -1.90735e-06 192.593 -1.90735e-06Z" fill="#A6A6A6"/>
<path d="M15.4595 10.9311C15.0243 11.3769 14.7725 12.0711 14.7725 12.9701V45.0369C14.7725 45.9359 15.0243 46.6301 15.4595 47.076L15.5669 47.1738L33.9262 29.212V28.7878L15.5669 10.826L15.4595 10.9311Z" fill="url(#paint0_linear_8375_125960)"/>
<path d="M40.0392 35.2012L33.9263 29.2109V28.7867L40.0466 22.7964L40.1837 22.8744L47.4318 26.9108C49.5003 28.0563 49.5003 29.9413 47.4318 31.094L40.1837 35.1232L40.0392 35.2012Z" fill="url(#paint1_linear_8375_125960)"/>
<path d="M40.1835 35.1241L33.9261 28.9997L15.4595 47.0757C16.1465 47.7826 17.2669 47.8678 18.541 47.1609L40.1835 35.1241Z" fill="url(#paint2_linear_8375_125960)"/>
<path d="M40.1835 22.8756L18.541 10.8388C17.2669 10.1391 16.1465 10.2243 15.4595 10.9312L33.9261 29L40.1835 22.8756Z" fill="url(#paint3_linear_8375_125960)"/>
<path d="M70.2484 14.8523C70.2484 16.0631 69.878 17.0327 69.1484 17.7559C68.3095 18.6132 67.2169 19.0446 65.878 19.0446C64.5984 19.0446 63.5058 18.606 62.6095 17.7414C61.7113 16.8642 61.2632 15.7876 61.2632 14.4989C61.2632 13.2102 61.7113 12.1336 62.6095 11.2636C63.5058 10.3918 64.5984 9.95312 65.878 9.95312C66.515 9.95312 67.1224 10.0818 67.7021 10.3211C68.2798 10.5621 68.7502 10.8884 69.091 11.2907L68.3169 12.0556C67.7224 11.3687 66.9132 11.0298 65.878 11.0298C64.9447 11.0298 64.1354 11.3487 63.4484 11.9922C62.7687 12.6374 62.428 13.473 62.428 14.4989C62.428 15.5247 62.7687 16.3676 63.4484 17.0128C64.1354 17.649 64.9447 17.9752 65.878 17.9752C66.8687 17.9752 67.7021 17.649 68.3595 17.0056C68.7928 16.5796 69.0391 15.9924 69.1039 15.242H65.878V14.1944H70.1817C70.2336 14.4209 70.2484 14.6402 70.2484 14.8523Z" fill="white" stroke="white" stroke-width="0.16" stroke-miterlimit="10"/>
<path d="M77.0762 11.2199H73.0336V13.9749H76.6781V15.0225H73.0336V17.7775H77.0762V18.8451H71.8892V10.1523H77.0762V11.2199Z" fill="white" stroke="white" stroke-width="0.16" stroke-miterlimit="10"/>
<path d="M81.8946 18.8451H80.7501V11.2199H78.2705V10.1523H84.3761V11.2199H81.8946V18.8451Z" fill="white" stroke="white" stroke-width="0.16" stroke-miterlimit="10"/>
<path d="M88.7949 18.8451V10.1523H89.9375V18.8451H88.7949Z" fill="white" stroke="white" stroke-width="0.16" stroke-miterlimit="10"/>
<path d="M95.002 18.8451H93.8668V11.2199H91.3779V10.1523H97.4909V11.2199H95.002V18.8451Z" fill="white" stroke="white" stroke-width="0.16" stroke-miterlimit="10"/>
<path d="M109.05 17.7269C108.175 18.606 107.089 19.0446 105.795 19.0446C104.493 19.0446 103.408 18.606 102.532 17.7269C101.658 16.8497 101.223 15.7731 101.223 14.4989C101.223 13.2247 101.658 12.1481 102.532 11.2708C103.408 10.3918 104.493 9.95312 105.795 9.95312C107.082 9.95312 108.167 10.3917 109.043 11.2781C109.925 12.1626 110.36 13.2319 110.36 14.4989C110.36 15.7731 109.925 16.8497 109.05 17.7269ZM103.378 16.9983C104.037 17.649 104.839 17.9752 105.795 17.9752C106.743 17.9752 107.552 17.649 108.204 16.9983C108.862 16.3476 109.195 15.5121 109.195 14.4989C109.195 13.4857 108.862 12.6501 108.204 11.9994C107.552 11.3488 106.743 11.0225 105.795 11.0225C104.839 11.0225 104.037 11.3488 103.378 11.9994C102.721 12.6501 102.387 13.4857 102.387 14.4989C102.387 15.5121 102.721 16.3476 103.378 16.9983Z" fill="white" stroke="white" stroke-width="0.16" stroke-miterlimit="10"/>
<path d="M111.965 18.8451V10.1523H113.354L117.672 16.913H117.722L117.672 15.2418V10.1523H118.815V18.8451H117.622L113.1 11.751H113.05L113.1 13.4293V18.8451H111.965Z" fill="white" stroke="white" stroke-width="0.16" stroke-miterlimit="10"/>
<path d="M100.941 31.5409C97.4609 31.5409 94.6183 34.1327 94.6183 37.7088C94.6183 41.2559 97.4609 43.8749 100.941 43.8749C104.428 43.8749 107.27 41.2559 107.27 37.7088C107.27 34.1327 104.428 31.5409 100.941 31.5409ZM100.941 41.4462C99.0313 41.4462 97.3887 39.9037 97.3887 37.7088C97.3887 35.4849 99.0313 33.9696 100.941 33.9696C102.85 33.9696 104.5 35.4849 104.5 37.7088C104.5 39.9037 102.85 41.4462 100.941 41.4462ZM87.1461 31.5409C83.6591 31.5409 80.8239 34.1327 80.8239 37.7088C80.8239 41.2559 83.6591 43.8749 87.1461 43.8749C90.6313 43.8749 93.4683 41.2559 93.4683 37.7088C93.4683 34.1327 90.6313 31.5409 87.1461 31.5409ZM87.1461 41.4462C85.235 41.4462 83.5868 39.9037 83.5868 37.7088C83.5868 35.4849 85.235 33.9696 87.1461 33.9696C89.0553 33.9696 90.6979 35.4849 90.6979 37.7088C90.6979 39.9037 89.0553 41.4462 87.1461 41.4462ZM70.7313 33.4313V36.0522H77.1257C76.9387 37.5167 76.4387 38.5933 75.672 39.3437C74.7387 40.2499 73.285 41.2559 70.7313 41.2559C66.7961 41.2559 63.7146 38.1474 63.7146 34.2959C63.7146 30.4443 66.7961 27.3359 70.7313 27.3359C72.8591 27.3359 74.4072 28.1497 75.5498 29.2046L77.4368 27.3576C75.8387 25.8641 73.7128 24.7168 70.7313 24.7168C65.335 24.7168 60.7998 29.0142 60.7998 34.2959C60.7998 39.5775 65.335 43.8749 70.7313 43.8749C73.6479 43.8749 75.8387 42.9397 77.5609 41.1852C79.3257 39.4579 79.8757 37.0291 79.8757 35.068C79.8757 34.459 79.8239 33.8989 79.7313 33.4313H70.7313ZM137.853 35.4631C137.333 34.0838 135.728 31.5409 132.457 31.5409C129.216 31.5409 126.518 34.0403 126.518 37.7088C126.518 41.1634 129.189 43.8749 132.768 43.8749C135.663 43.8749 137.333 42.1476 138.02 41.1417L135.872 39.7406C135.155 40.7665 134.179 41.4462 132.768 41.4462C131.366 41.4462 130.361 40.8172 129.716 39.5775L138.144 36.1645L137.853 35.4631ZM129.261 37.5167C129.189 35.1387 131.148 33.9207 132.552 33.9207C133.652 33.9207 134.585 34.459 134.896 35.2293L129.261 37.5167ZM122.411 43.4997H125.181V25.3747H122.411V43.4997ZM117.874 32.9147H117.781C117.159 32.1934 115.972 31.5409 114.468 31.5409C111.313 31.5409 108.428 34.2524 108.428 37.7287C108.428 41.1852 111.313 43.8749 114.468 43.8749C115.972 43.8749 117.159 43.217 117.781 42.4739H117.874V43.3584C117.874 45.7164 116.587 46.9834 114.511 46.9834C112.818 46.9834 111.768 45.7871 111.335 44.7812L108.926 45.7654C109.62 47.4002 111.459 49.4121 114.511 49.4121C117.759 49.4121 120.5 47.5416 120.5 42.9904V31.916H117.874V32.9147ZM114.705 41.4462C112.796 41.4462 111.198 39.882 111.198 37.7287C111.198 35.5555 112.796 33.9696 114.705 33.9696C116.587 33.9696 118.07 35.5555 118.07 37.7287C118.07 39.882 116.587 41.4462 114.705 41.4462ZM150.824 25.3747H144.198V43.4997H146.961V36.6322H150.824C153.892 36.6322 156.902 34.459 156.902 31.0025C156.902 27.5479 153.885 25.3747 150.824 25.3747ZM150.896 34.111H146.961V27.8959H150.896C152.959 27.8959 154.137 29.5725 154.137 31.0025C154.137 32.4054 152.959 34.111 150.896 34.111ZM167.976 31.5064C165.979 31.5064 163.903 32.3692 163.05 34.2814L165.502 35.2873C166.029 34.2814 167 33.9551 168.026 33.9551C169.459 33.9551 170.913 34.7979 170.935 36.286V36.4763C170.435 36.1935 169.365 35.7749 168.048 35.7749C165.407 35.7749 162.716 37.1977 162.716 39.853C162.716 42.2817 164.879 43.8459 167.311 43.8459C169.17 43.8459 170.196 43.0249 170.841 42.0697H170.935V43.4707H173.603V36.518C173.603 33.3044 171.152 31.5064 167.976 31.5064ZM167.642 41.4389C166.739 41.4389 165.479 41.0003 165.479 39.9037C165.479 38.5009 167.05 37.9625 168.409 37.9625C169.626 37.9625 170.196 38.2254 170.935 38.5715C170.718 40.2499 169.242 41.4389 167.642 41.4389ZM183.326 31.9034L180.15 39.7605H180.055L176.772 31.9034H173.792L178.726 42.8835L175.911 48.9934H178.798L186.4 31.9034H183.326ZM158.42 43.4997H161.191V25.3747H158.42V43.4997Z" fill="white"/>
<defs>
<linearGradient id="paint0_linear_8375_125960" x1="32.2961" y1="45.3708" x2="7.96721" y2="20.5138" gradientUnits="userSpaceOnUse">
<stop stop-color="#00A0FF"/>
<stop offset="0.0066" stop-color="#00A1FF"/>
<stop offset="0.2601" stop-color="#00BEFF"/>
<stop offset="0.5122" stop-color="#00D2FF"/>
<stop offset="0.7604" stop-color="#00DFFF"/>
<stop offset="1" stop-color="#00E3FF"/>
</linearGradient>
<linearGradient id="paint1_linear_8375_125960" x1="50.1254" y1="28.9968" x2="14.2781" y2="28.9968" gradientUnits="userSpaceOnUse">
<stop stop-color="#FFE000"/>
<stop offset="0.4087" stop-color="#FFBD00"/>
<stop offset="0.7754" stop-color="#FFA500"/>
<stop offset="1" stop-color="#FF9C00"/>
</linearGradient>
<linearGradient id="paint2_linear_8375_125960" x1="36.7809" y1="25.6703" x2="3.78903" y2="-8.0379" gradientUnits="userSpaceOnUse">
<stop stop-color="#FF3A44"/>
<stop offset="1" stop-color="#C31162"/>
</linearGradient>
<linearGradient id="paint3_linear_8375_125960" x1="10.811" y1="57.7445" x2="25.5434" y2="42.6924" gradientUnits="userSpaceOnUse">
<stop stop-color="#32A071"/>
<stop offset="0.0685" stop-color="#2DA771"/>
<stop offset="0.4762" stop-color="#15CF74"/>
<stop offset="0.8009" stop-color="#06E775"/>
<stop offset="1" stop-color="#00F076"/>
</linearGradient>
</defs>
</svg>
