<svg width="500" height="115" viewBox="0 0 500 115" fill="none" xmlns="http://www.w3.org/2000/svg">
<path d="M64.5499 30.4462C59.231 33.2348 55.1514 37.4693 52.2079 43.0981C50.039 37.9857 45.8561 33.8028 39.7109 30.4462C44.9266 27.7609 49.0578 23.578 52.2079 17.9492C54.6866 22.9583 58.8179 27.0896 64.5499 30.4462ZM85.1544 38.7086C80.8683 40.9808 77.0985 45.4735 73.7419 52.1351C71.6763 46.1965 67.7516 41.7554 62.0196 38.7086C66.9254 35.7135 70.7984 31.1175 73.7419 24.9723C75.0846 27.7609 76.7371 30.2396 78.751 32.3052C80.9199 34.3708 83.0888 36.5397 85.1544 38.7086Z" fill="#00A0E9"/>
<path d="M9.39792 27.0898C11.825 27.1931 13.839 28.071 15.5431 29.6719C17.2473 31.3244 18.1251 33.3383 18.2284 35.7654V59.1069H71.7278C74.2066 59.1069 76.3754 59.9331 78.1312 61.6372C79.8354 63.393 80.6616 65.5619 80.6616 68.0406C80.6616 70.5194 79.7837 72.6366 78.0796 74.3924C76.3754 76.1482 74.2066 76.9744 71.7278 76.9744H18.1768V101.142C17.6604 106.461 14.7169 109.353 9.34628 109.818C6.86754 109.818 4.69865 108.991 2.89124 107.339C1.08382 105.686 0.154297 103.621 0.154297 101.142V35.7654C0.257578 33.2867 1.1871 31.2211 2.94288 29.5686C4.69865 27.9161 6.86754 27.0898 9.34628 27.0898" fill="#00A0E9"/>
<path d="M96.6719 38.1867C96.6719 35.708 97.5498 33.5907 99.2539 31.8349C101.01 30.0792 103.075 29.2529 105.606 29.2529H161.635C162.152 29.2529 162.72 29.2529 163.236 29.4079H164.063C170.311 29.5628 175.423 31.2669 179.4 34.417C183.428 37.567 186.268 41.1302 188.075 45.1582C189.831 49.1861 190.761 53.2141 190.761 57.2936C190.761 61.3732 189.883 65.711 188.179 69.6873C186.423 73.7153 183.531 77.2785 179.503 80.4285C175.475 83.5786 170.311 85.1278 164.114 85.0245H156.626C154.148 85.0245 152.03 84.1466 150.378 82.3392C148.622 80.6351 147.693 78.5695 147.693 76.0907C147.693 73.612 148.57 71.4947 150.275 69.739C152.03 67.9832 154.148 67.1569 156.626 67.1569H164.889C166.593 67.1569 167.987 66.5889 169.072 65.5045C170.208 64.3684 170.982 63.0774 171.55 61.6314C172.067 60.1855 172.377 58.6879 172.377 57.1387C172.377 55.6928 172.118 54.2469 171.55 52.8009C171.034 51.355 170.208 50.064 169.072 48.9279C167.936 47.7918 166.541 47.2238 164.889 47.1205H105.657C103.179 47.1205 101.061 46.2426 99.4088 44.4352C97.653 42.7311 96.7235 40.6654 96.7235 38.1867M136.745 53.7821C139.172 53.8854 141.083 54.7633 142.529 56.3641C143.974 58.0166 144.646 60.0306 144.439 62.4577L143.613 69.5324C142.735 75.8325 141.083 81.8228 138.655 87.4C136.073 93.0288 132.51 97.728 127.914 101.601C123.318 105.474 117.948 107.591 111.699 107.953H105.812C103.385 107.85 101.371 107.023 99.7187 105.371C98.0662 103.718 97.1883 101.704 97.1366 99.2772C97.1366 96.7985 97.9629 94.6296 99.6154 92.8738C101.268 91.1181 103.333 90.1369 105.812 90.0853H109.53C112.887 89.9303 115.882 88.6393 118.412 86.2122C120.943 83.7851 122.699 81.0998 123.68 78.0014C124.661 74.9546 125.384 71.598 125.797 67.9315L126.313 62.4577C126.778 59.9789 127.966 57.9133 129.928 56.2608C131.891 54.6083 134.111 53.7821 136.59 53.7821" fill="#00A0E9"/>
<path d="M211.828 90.0904L233.311 65.9227V59.3643H218.748C216.269 59.3643 214.152 58.4865 212.396 56.7823C210.641 55.0266 209.814 52.9093 209.814 50.4306C209.814 47.9518 210.641 45.7829 212.345 44.0272C214.1 42.323 216.269 41.4968 218.748 41.4968H233.311V34.1639C233.414 31.7368 234.292 29.7228 235.996 28.0703C237.7 26.4178 239.714 25.5399 242.141 25.4883C244.62 25.4883 246.789 26.3145 248.545 27.967C250.3 29.6195 251.282 31.6851 251.333 34.1639V48.4682C257.014 44.1821 262.694 41.9099 268.426 41.5484H276.275C281.439 41.5484 285.881 43.0976 289.599 46.1444C293.317 49.1912 295.227 53.5806 295.331 59.3127V82.5509C295.589 87.4567 298.171 89.8322 303.077 89.7805C305.504 90.2453 307.311 91.4846 308.551 93.6019C309.79 95.6675 310.255 97.9397 309.893 100.367C308.447 105.686 305.091 108.113 299.772 107.596C284.744 105.737 277.257 97.2167 277.36 82.0861V65.9227C277.515 61.7398 275.501 59.6226 271.215 59.5193H268.684C265.328 59.6742 261.403 61.9464 256.962 66.1809C254.845 68.2465 252.934 70.0539 251.333 71.6548V101.296C251.333 103.775 250.404 105.841 248.596 107.493C246.789 109.146 244.62 109.972 242.141 109.972C236.822 109.507 233.879 106.615 233.311 101.296V92.1043L224.635 102.123C223.292 103.62 221.847 104.705 220.297 105.324C218.748 105.944 216.786 105.789 214.514 104.808C212.293 103.827 210.744 102.174 209.866 99.8504C208.988 97.5266 209.04 95.2027 210.021 92.9306C210.537 91.8461 211.157 90.9682 211.88 90.2453" fill="#00A0E9"/>
<path d="M474.211 44.1791C471.836 46.5545 471.836 50.3759 474.211 52.6997C476.587 55.0752 480.408 55.0752 482.732 52.6997C485.107 50.3243 485.107 46.5029 482.732 44.1791C480.356 41.8036 476.535 41.8036 474.211 44.1791Z" fill="#00A0E9"/>
<path d="M497.865 48.6204C500.809 43.0949 500.034 36.1234 495.387 31.4758C490.739 26.8282 483.716 26.0019 478.19 28.9971C472.562 25.4339 465.022 26.0536 460.116 30.9594C455.21 35.8652 454.591 43.4047 458.154 49.0335C455.778 53.423 455.83 58.7419 458.36 63.1313L417.203 104.237L422.625 109.659L429.029 103.204L437.188 111.363L443.953 104.599L435.794 96.4394L441.887 90.3458L450.046 98.505L456.811 91.7401L448.652 83.5809L463.731 68.5019C464.093 68.7085 464.506 68.9667 464.867 69.1216L465.229 69.2765H465.384C466.107 69.638 466.778 69.793 467.294 69.9479H467.346L467.914 70.1028H468.069C468.74 70.2577 469.36 70.3094 469.928 70.361H470.651H470.806C471.477 70.361 472.097 70.361 472.613 70.2577L473.285 70.1544H473.439C474.007 69.9995 474.627 69.8962 475.144 69.6897H475.247L475.918 69.4315H476.021C476.59 69.1733 477.158 68.9151 477.674 68.6569C483.303 72.22 490.842 71.6004 495.748 66.6945C500.654 61.7887 501.325 54.1976 497.71 48.5688M490.326 61.2723C487.641 63.9576 483.303 63.9576 480.566 61.2723C479.223 59.9296 477.158 59.7747 475.608 60.8592L475.35 61.0657L475.144 61.2207L474.421 61.7371L474.007 61.9953L473.285 62.3051L472.82 62.46L472.045 62.6666H471.58L470.806 62.7699H470.341L469.515 62.6666L469.153 62.5633C468.74 62.46 468.482 62.3567 468.275 62.3051L468.017 62.2018H467.966L467.088 61.7371H466.984L466.933 61.6338C466.571 61.3756 466.261 61.1174 466.003 60.8592H465.952C463.37 58.2255 463.266 54.0943 465.642 51.409C466.984 49.9114 466.881 47.5876 465.487 46.1933C462.802 43.4564 462.802 39.1186 465.487 36.4333C468.172 33.748 472.562 33.748 475.247 36.4333C476.693 37.8792 478.965 37.9825 480.463 36.6398C483.148 34.2644 487.279 34.3677 489.861 36.9497C492.443 39.5317 492.546 43.7146 490.119 46.3999C488.88 47.7942 488.828 49.8081 489.964 51.3057C490.119 51.5123 490.377 51.6672 490.532 51.8221C493.063 54.5074 493.011 58.7419 490.377 61.3756" fill="#00A0E9"/>
<path d="M422.884 13.7128C417.565 16.5014 413.485 20.7359 410.542 26.3647C408.373 21.2523 404.19 17.0694 398.045 13.7128C403.261 11.0275 407.392 6.84462 410.542 1.21582C413.021 6.22493 417.152 10.3562 422.884 13.7128ZM443.488 21.9752C439.202 24.2474 435.433 28.7401 432.076 35.4017C430.01 29.4631 426.086 25.022 420.354 21.9752C425.259 18.9801 429.132 14.3841 432.076 8.23891C433.419 11.0275 435.071 13.5062 437.085 15.5718C439.254 17.6374 441.423 19.8063 443.488 21.9752Z" fill="#00A0E9"/>
<path d="M340.981 82.4971V35.8143C340.878 33.3355 339.949 31.2699 338.193 29.6174C336.437 27.9649 334.268 27.1387 331.789 27.1387C329.362 27.242 327.348 28.1198 325.644 29.7207C323.94 31.3732 323.062 33.3872 322.959 35.8143V81.9807C323.062 88.7456 324.715 95.8203 327.916 103.205C330.498 107.853 334.371 109.298 339.536 107.594C341.756 106.51 343.409 104.857 344.39 102.637C345.423 100.416 345.423 98.1958 344.441 95.9753C342.118 90.8112 340.981 86.3185 340.981 82.4971Z" fill="#00A0E9"/>
<path d="M416.737 72.6845C414.981 71.2902 412.864 70.6189 410.385 70.6189H405.427V64.6286H410.075C412.554 64.6286 414.671 63.9057 416.427 62.5114C418.183 61.0655 419.009 59.3097 419.009 57.1924C419.009 55.0752 418.183 53.4227 416.478 51.9768C414.723 50.5308 412.554 49.8595 410.075 49.8595H405.427V44.1274H410.075C412.554 44.1274 414.671 43.4045 416.427 41.9069C418.183 40.461 419.009 38.7052 419.009 36.7429C419.009 34.7805 418.183 32.9215 416.478 31.4239C414.723 29.978 412.554 29.3066 410.075 29.3066H359.364C356.885 29.3066 354.768 30.0296 353.012 31.5272C351.257 32.9731 350.43 34.7289 350.43 36.7945C350.43 38.8601 351.308 40.5126 353.116 42.0102C354.82 43.4561 356.885 44.1274 359.364 44.1274H387.405V49.8595H359.364C356.885 49.8595 354.768 50.5825 353.012 51.9768C351.257 53.4227 350.43 55.1268 350.43 57.1924C350.43 59.258 351.308 61.1171 353.116 62.5114C354.82 63.9573 356.885 64.6286 359.364 64.6286H387.405V70.6189H375.373C369.692 70.6189 364.838 71.755 360.81 73.9755C356.782 76.1961 353.89 78.7265 352.135 81.515C350.379 84.3036 349.449 87.1438 349.449 89.984C349.449 93.0825 350.327 96.0776 352.031 98.8662C353.787 101.655 356.679 104.133 360.758 106.251C364.58 108.368 369.434 109.607 375.321 109.866H381.208C387.457 109.504 392.104 108.11 395.306 105.734C398.456 103.307 400.935 100.106 402.69 95.9743C404.033 92.6693 404.859 89.1062 405.221 85.2848H410.282C412.76 85.2848 414.878 84.5618 416.53 83.1675C418.286 81.9282 419.215 80.1724 419.215 77.9518C419.215 75.7313 418.337 74.0788 416.633 72.6845H416.737ZM378.781 90.0357V96.8522C378.781 98.1949 377.696 99.2793 376.354 99.2793C375.011 99.2793 373.927 98.1949 373.927 96.8522V90.0357C372.532 89.2094 371.603 87.7119 371.603 85.9561C371.603 83.3224 373.72 81.2052 376.354 81.2052C378.987 81.2052 381.105 83.3224 381.105 85.9561C381.105 87.7119 380.175 89.2094 378.729 90.0357H378.781Z" fill="#00A0E9"/>
</svg>
