<svg width="152" height="40" viewBox="0 0 152 40" fill="none" xmlns="http://www.w3.org/2000/svg">
<g clip-path="url(#clip0_3166_68873)">
<path d="M19.6233 13.9834C18.0064 14.8414 16.7662 16.1444 15.8713 17.8763C15.212 16.3032 13.9404 15.0162 12.0723 13.9834C13.6578 13.1572 14.9137 11.8701 15.8713 10.1382C16.6249 11.6794 17.8808 12.9506 19.6233 13.9834ZM25.8871 16.5257C24.5841 17.2248 23.4381 18.6072 22.4177 20.6569C21.7897 18.8297 20.5966 17.4632 18.8541 16.5257C20.3455 15.6041 21.5229 14.19 22.4177 12.2991C22.8258 13.1572 23.3282 13.9198 23.9405 14.5554C24.5998 15.191 25.2591 15.8583 25.8871 16.5257Z" fill="white"/>
<path d="M2.85694 12.9507C3.59477 12.9825 4.20702 13.2526 4.72508 13.7452C5.24313 14.2536 5.51001 14.8733 5.54141 15.6201V22.8021H21.8052C22.5588 22.8021 23.2181 23.0563 23.7519 23.5806C24.2699 24.1209 24.5211 24.7882 24.5211 25.5509C24.5211 26.3136 24.2542 26.9651 23.7362 27.5053C23.2181 28.0456 22.5588 28.2998 21.8052 28.2998H5.52571V35.736C5.36872 37.3726 4.4739 38.2624 2.84124 38.4054C2.0877 38.4054 1.42836 38.1512 0.878904 37.6427C0.329451 37.1343 0.046875 36.4987 0.046875 35.736V15.6201C0.0782723 14.8574 0.360848 14.2218 0.894603 13.7134C1.42836 13.2049 2.0877 12.9507 2.84124 12.9507" fill="white"/>
<path d="M29.3887 16.3651C29.3887 15.6024 29.6555 14.9509 30.1736 14.4107C30.7074 13.8704 31.3353 13.6162 32.1045 13.6162H49.1376C49.2946 13.6162 49.4673 13.6162 49.6243 13.6639H49.8754C51.775 13.7115 53.3291 14.2359 54.5379 15.2051C55.7624 16.1744 56.6259 17.2708 57.1753 18.5101C57.7091 19.7495 57.9916 20.9889 57.9916 22.2441C57.9916 23.4994 57.7248 24.8341 57.2067 26.0576C56.6729 27.2969 55.7938 28.3933 54.5693 29.3625C53.3448 30.3318 51.775 30.8085 49.8911 30.7767H47.6148C46.8613 30.7767 46.2176 30.5066 45.7153 29.9504C45.1815 29.4261 44.899 28.7905 44.899 28.0278C44.899 27.2652 45.1658 26.6137 45.6839 26.0735C46.2176 25.5332 46.8613 25.279 47.6148 25.279H50.1266C50.6447 25.279 51.0685 25.1042 51.3982 24.7705C51.7436 24.421 51.9791 24.0237 52.1517 23.5788C52.3087 23.1339 52.4029 22.6731 52.4029 22.1965C52.4029 21.7516 52.3244 21.3067 52.1517 20.8617C51.9948 20.4168 51.7436 20.0196 51.3982 19.67C51.0528 19.3205 50.629 19.1457 50.1266 19.1139H32.1202C31.3667 19.1139 30.7231 18.8438 30.2207 18.2877C29.6869 17.7633 29.4044 17.1278 29.4044 16.3651M41.5708 21.1636C42.3087 21.1954 42.8895 21.4655 43.3291 21.9581C43.7687 22.4666 43.9727 23.0863 43.9099 23.8331L43.6588 26.0099C43.3919 27.9484 42.8895 29.7916 42.1517 31.5076C41.3668 33.2395 40.2835 34.6855 38.8864 35.8772C37.4892 37.0689 35.8565 37.7203 33.957 37.8316H32.1673C31.4295 37.7998 30.8173 37.5456 30.3149 37.0371C29.8125 36.5286 29.5457 35.9089 29.53 35.1621C29.53 34.3995 29.7811 33.7321 30.2835 33.1919C30.7859 32.6516 31.4138 32.3497 32.1673 32.3338H33.2976C34.3181 32.2862 35.2286 31.8889 35.9978 31.1421C36.767 30.3954 37.3008 29.5691 37.5991 28.6157C37.8974 27.6783 38.1171 26.6455 38.2427 25.5173L38.3997 23.8331C38.541 23.0704 38.9021 22.4348 39.4986 21.9263C40.0952 21.4179 40.7702 21.1636 41.5237 21.1636" fill="white"/>
<path d="M64.395 32.3356L70.9256 24.8994V22.8814H66.4986C65.7451 22.8814 65.1014 22.6113 64.5677 22.0869C64.0339 21.5467 63.7827 20.8952 63.7827 20.1326C63.7827 19.3699 64.0339 18.7025 64.5519 18.1623C65.0857 17.6379 65.7451 17.3837 66.4986 17.3837H70.9256V15.1274C70.957 14.3806 71.2239 13.7609 71.7419 13.2525C72.26 12.744 72.8722 12.4739 73.6101 12.458C74.3636 12.458 75.023 12.7122 75.5567 13.2207C76.0905 13.7292 76.3887 14.3647 76.4044 15.1274V19.5288C78.1313 18.2099 79.8581 17.5108 81.6007 17.3996H83.9869C85.5568 17.3996 86.9069 17.8763 88.0372 18.8137C89.1675 19.7512 89.7483 21.1018 89.7797 22.8655V30.0157C89.8582 31.5252 90.6431 32.2561 92.1345 32.2402C92.8723 32.3832 93.4218 32.7646 93.7986 33.416C94.1753 34.0516 94.3166 34.7507 94.2067 35.4975C93.7672 37.1341 92.7467 37.8809 91.1298 37.7221C86.5615 37.15 84.2852 34.5283 84.3166 29.8727V24.8994C84.3637 23.6123 83.7514 22.9609 82.4484 22.9291H81.6792C80.6588 22.9767 79.4657 23.6759 78.1156 24.9788C77.4719 25.6144 76.8911 26.1705 76.4044 26.6631V35.7836C76.4044 36.5462 76.1219 37.1818 75.5724 37.6903C75.023 38.1987 74.3636 38.453 73.6101 38.453C71.9931 38.31 71.0983 37.4202 70.9256 35.7836V32.9553L68.2882 36.0378C67.8801 36.4986 67.4405 36.8322 66.9695 37.0229C66.4986 37.2136 65.902 37.1659 65.2113 36.864C64.5363 36.5621 64.0653 36.0537 63.7984 35.3387C63.5315 34.6236 63.5472 33.9086 63.8455 33.2095C64.0025 32.8758 64.1909 32.6057 64.4107 32.3832" fill="white"/>
<path d="M1.146 2.79648V1.68423C0.910523 1.97024 0.643645 2.22447 0.376768 2.44692C0.282576 2.35158 0.109891 2.20858 0 2.12913C0.627947 1.63656 1.25589 0.842094 1.63266 0.0317383L2.22921 0.2383C2.22921 0.2383 2.15072 0.317746 2.05652 0.301857C1.94663 0.524308 1.82105 0.730869 1.67976 0.93743H6.59344V1.39822H5.77711V2.78059H6.87602V3.24138H5.77711V4.63965H6.76612V5.10044H0.188384V4.63965H1.146V3.24138H0.0627947V2.78059H1.1303L1.146 2.79648ZM1.45998 5.6089C1.25589 6.18091 0.910523 6.8006 0.486659 7.16605L0.0156987 6.95949C0.423864 6.6417 0.784933 6.0538 0.989016 5.48178L1.45998 5.6089ZM1.61696 1.41411V2.79648H2.52748V1.41411H1.61696ZM1.61696 3.25727V4.65554H2.52748V3.25727H1.61696ZM2.48039 7.0866C2.48039 6.72115 2.41759 6.13324 2.3234 5.67245L2.77866 5.62478C2.88855 6.06969 2.96705 6.67348 2.98275 7.00716L2.48039 7.0866ZM3.92467 1.41411H2.98275V2.79648H3.92467V1.41411ZM3.92467 3.25727H2.98275V4.65554H3.92467V3.25727ZM4.36423 7.10249C4.30143 6.73704 4.09735 6.13324 3.89327 5.67245L4.36423 5.57712C4.58401 6.02202 4.78809 6.62581 4.86659 6.97538L4.36423 7.0866V7.10249ZM5.33755 2.79648V1.41411H4.36423V2.79648H5.33755ZM5.33755 4.65554V3.25727H4.36423V4.65554H5.33755ZM6.49925 7.18194C6.31086 6.76882 5.8556 6.10146 5.47883 5.62478L5.94979 5.45C6.34226 5.91079 6.79752 6.56226 7.0016 6.97538L6.49925 7.16605V7.18194Z" fill="white"/>
<path d="M11.4287 0.334777C11.4287 0.334777 11.3659 0.430113 11.2717 0.446003V0.668453C11.3345 1.74893 11.7898 5.32403 14.6783 6.65873C14.5371 6.76996 14.3801 6.94474 14.2859 7.08775C12.2451 6.10261 11.3973 4.0211 11.0363 2.43217C10.7223 3.98932 9.93735 5.97549 7.88082 7.07186C7.78663 6.94474 7.62964 6.78585 7.47266 6.67462C10.6281 5.08569 10.6595 1.31992 10.7066 0.287109L11.4287 0.334777Z" fill="white"/>
<path d="M15.5098 1.06445C15.5098 0.857885 15.5883 0.683102 15.7295 0.524209C15.8708 0.381205 16.0435 0.301758 16.2633 0.301758H21.8363C22.0404 0.301758 22.2131 0.365315 22.3701 0.508319C22.5114 0.651323 22.5742 0.841995 22.5742 1.04856C22.5742 1.17567 22.5428 1.30279 22.48 1.41401L20.9572 3.9563L22.8881 5.81536C23.1707 6.14903 23.1864 6.4986 22.8881 6.84816C22.7468 6.99117 22.5742 7.0865 22.3701 7.10239C22.166 7.11828 21.9933 7.05472 21.8363 6.91172L20.0781 5.22745C19.7641 5.62468 19.4344 5.95836 19.1048 6.21259C18.5396 6.6416 17.9902 6.87994 17.4564 6.91172H16.3104C16.1063 6.91172 15.9493 6.83227 15.808 6.68927C15.6668 6.54627 15.604 6.38737 15.5883 6.18081C15.5883 5.97425 15.6511 5.79947 15.7923 5.64057C15.9336 5.49757 16.1063 5.41812 16.3104 5.40223H17.3465C17.6291 5.40223 17.9117 5.27512 18.2256 5.08445C18.5239 4.87789 18.7751 4.65544 18.9792 4.40121C19.1833 4.14698 19.3716 3.86097 19.5443 3.55907L20.5804 1.81124H16.2633C16.0592 1.81124 15.8865 1.7318 15.7452 1.58879C15.604 1.44579 15.5255 1.27101 15.5255 1.06445H15.5098Z" fill="white"/>
<path d="M24.4414 1.06445C24.4414 0.857885 24.5199 0.683102 24.6612 0.524209C24.8025 0.381205 24.9752 0.301758 25.1949 0.301758H29.983C29.983 0.301758 30.0772 0.301758 30.1086 0.301758H30.1714C30.6895 0.301758 31.1133 0.460651 31.443 0.714881C31.7727 0.984999 32.0082 1.2869 32.1651 1.62057C32.3064 1.95425 32.3849 2.30381 32.3849 2.63749C32.3849 2.97117 32.3064 3.35251 32.1651 3.68619C32.0239 4.01986 31.7884 4.32176 31.443 4.59188C31.0976 4.862 30.6738 4.98911 30.1557 4.97322H29.1196C28.9155 4.97322 28.7428 4.89378 28.6016 4.75077C28.4603 4.60777 28.3818 4.43299 28.3818 4.22642C28.3818 4.01986 28.4603 3.84508 28.6016 3.68619C28.7428 3.54318 28.9155 3.46374 29.1353 3.46374H30.2499C30.3912 3.46374 30.5011 3.41607 30.5953 3.32073C30.6895 3.2254 30.7523 3.11417 30.7994 3.00294C30.8465 2.87583 30.8622 2.74872 30.8622 2.6216C30.8622 2.49449 30.8465 2.38326 30.7994 2.25615C30.7523 2.12903 30.6895 2.01781 30.5953 1.93836C30.5011 1.84302 30.3912 1.79536 30.2499 1.77947H25.1949C24.9909 1.77947 24.8182 1.70002 24.6769 1.55702C24.5356 1.41401 24.4571 1.23923 24.4571 1.03267L24.4414 1.06445ZM26.2782 2.41504C26.4665 2.35148 26.6549 2.35148 26.8276 2.41504C27.016 2.4786 27.1573 2.60571 27.2515 2.79638L28.7114 6.06959C28.8527 6.48271 28.7114 6.8005 28.3347 7.02295C28.1463 7.11828 27.9579 7.13417 27.7695 7.07061C27.5654 7.00706 27.4399 6.87994 27.3457 6.68927L25.8857 3.41607C25.8072 3.2254 25.8072 3.03472 25.8857 2.84405C25.9642 2.65338 26.0898 2.51038 26.2782 2.43093V2.41504Z" fill="white"/>
<path d="M33.8613 3.57519C33.8613 3.36863 33.9398 3.19384 34.0811 3.03495C34.2224 2.89195 34.3951 2.8125 34.6149 2.8125H40.1879C40.392 2.8125 40.5647 2.87606 40.7216 3.01906C40.8629 3.16207 40.9257 3.35274 40.9257 3.5593C40.9257 3.76586 40.8472 3.94064 40.7059 4.09954C40.5647 4.24254 40.392 4.32199 40.1722 4.32199H34.5992C34.3951 4.32199 34.2224 4.24254 34.0811 4.09954C33.9398 3.95653 33.8613 3.78175 33.8613 3.57519Z" fill="white"/>
<path d="M43.2185 0.125977C43.4225 0.125977 43.5952 0.205423 43.7365 0.348427C43.8778 0.491431 43.9563 0.650325 43.9563 0.856886V2.82716H48.399C48.6031 2.82716 48.7758 2.89072 48.9328 3.03373C49.0741 3.17673 49.1368 3.3674 49.1368 3.57396C49.1368 3.78052 49.0584 3.95531 48.9171 4.1142C48.7758 4.2572 48.6031 4.33665 48.3833 4.33665H43.9406V6.37049C43.8935 6.81539 43.658 7.06962 43.2028 7.10139C42.9987 7.10139 42.8103 7.03784 42.669 6.89483C42.512 6.75183 42.4492 6.57705 42.4492 6.37049V0.856886C42.4492 0.650325 42.5277 0.475542 42.6847 0.332538C42.826 0.189534 43.0144 0.125977 43.2185 0.125977Z" fill="white"/>
<path d="M50.4707 1.97028C50.4707 1.76372 50.5492 1.58893 50.6905 1.43004C50.8318 1.27115 51.0045 1.20759 51.2242 1.20759H53.3906L53.3436 0.730909C53.3436 0.524348 53.4063 0.349565 53.5319 0.206561C53.6575 0.0635573 53.8302 0 54.05 0C54.2541 0 54.4268 0.0794467 54.5838 0.222451C54.7407 0.365455 54.8349 0.524348 54.8506 0.730909L54.8977 1.20759H57.4723C57.6764 1.20759 57.8491 1.27115 58.0061 1.41415C58.1473 1.55715 58.2101 1.74783 58.2101 1.95439C58.2101 2.16095 58.1316 2.33573 57.9904 2.49463C57.8491 2.63763 57.6764 2.71708 57.4566 2.71708H55.039L55.1489 3.877H57.4566C57.6607 3.877 57.8334 3.94056 57.9904 4.08356C58.1316 4.22656 58.1944 4.41724 58.1944 4.6238C58.1944 4.83036 58.1159 5.00514 57.9747 5.16403C57.8334 5.30704 57.6607 5.38649 57.4409 5.38649H55.2745L55.3687 6.35573C55.3687 6.80064 55.1332 7.05487 54.7093 7.08664C54.5053 7.08664 54.3169 7.02309 54.1442 6.88008C53.9715 6.73708 53.893 6.5623 53.8773 6.35573L53.7831 5.38649H51.2085C51.0045 5.38649 50.8318 5.30704 50.6905 5.16403C50.5492 5.02103 50.4707 4.84625 50.4707 4.63969C50.4707 4.43313 50.5492 4.25834 50.6905 4.09945C50.8318 3.95644 51.0045 3.877 51.2242 3.877H53.6575L53.5476 2.71708H51.2242C51.0202 2.71708 50.8475 2.63763 50.7062 2.49463C50.5649 2.35162 50.4864 2.17684 50.4864 1.97028H50.4707Z" fill="white"/>
<path d="M59.5137 3.57519C59.5137 3.36863 59.5922 3.19384 59.7335 3.03495C59.8747 2.89195 60.0474 2.8125 60.2672 2.8125H65.8402C66.0443 2.8125 66.217 2.87606 66.374 3.01906C66.5153 3.16207 66.5781 3.35274 66.5781 3.5593C66.5781 3.76586 66.4996 3.94064 66.3583 4.09954C66.217 4.24254 66.0443 4.32199 65.8245 4.32199H60.2515C60.0474 4.32199 59.8747 4.24254 59.7335 4.09954C59.5922 3.95653 59.5137 3.78175 59.5137 3.57519Z" fill="white"/>
<path d="M67.9121 1.06345C67.9121 0.856886 67.9906 0.682103 68.1319 0.52321C68.2732 0.380206 68.4459 0.300759 68.6657 0.300759H71.8839C72.088 0.300759 72.2606 0.364317 72.4176 0.507321C72.5589 0.650325 72.6217 0.840997 72.6217 1.04756C72.6217 1.25412 72.5432 1.4289 72.4019 1.5878C72.2606 1.7308 72.088 1.81025 71.8682 1.81025H68.6499C68.4459 1.81025 68.2732 1.7308 68.1319 1.5878C67.9906 1.44479 67.9121 1.27001 67.9121 1.06345ZM67.9592 3.39918C67.9592 3.19262 68.0377 3.01784 68.179 2.85894C68.3203 2.71594 68.493 2.63649 68.7127 2.63649H71.5699C71.774 2.63649 71.9467 2.70005 72.1037 2.84305C72.2449 2.98606 72.3077 3.17673 72.3077 3.38329C72.3077 3.58985 72.2292 3.76463 72.088 3.92353C71.9467 4.06653 71.774 4.14598 71.5542 4.14598H68.697C68.493 4.14598 68.3203 4.06653 68.179 3.92353C68.0377 3.78052 67.9592 3.60574 67.9592 3.39918ZM74.8352 0.125977C75.0393 0.125977 75.1963 0.205423 75.3219 0.348427C75.4475 0.491431 75.4946 0.650325 75.4789 0.856886L75.1021 3.70108C75.0236 4.22543 74.898 4.73388 74.6939 5.21056C74.4742 5.68724 74.1759 6.08448 73.7991 6.40226C73.4223 6.72005 72.9671 6.91072 72.449 6.9425H70.3611C70.157 6.9425 70 6.86306 69.8587 6.72005C69.7175 6.57705 69.6547 6.41815 69.639 6.21159C69.639 6.00503 69.7018 5.83025 69.8431 5.67135C69.9843 5.52835 70.157 5.4489 70.3611 5.43301H72.2763C72.5589 5.43301 72.8101 5.3059 73.0142 5.11523C73.2183 4.90867 73.3753 4.68622 73.4537 4.43199C73.5322 4.17776 73.595 3.89175 73.6264 3.58985L73.9875 0.888665C74.0189 0.682103 74.1288 0.507321 74.2858 0.364317C74.4428 0.221313 74.6311 0.157755 74.8352 0.157755V0.125977Z" fill="white"/>
<path d="M76.7812 1.06445C76.7812 0.857885 76.8597 0.683102 77.001 0.524209C77.1423 0.381205 77.315 0.301758 77.5348 0.301758H83.1078C83.3119 0.301758 83.4846 0.365315 83.6416 0.508319C83.7829 0.651323 83.8456 0.841995 83.8456 1.04856C83.8456 1.17567 83.8142 1.30279 83.7515 1.41401L82.2287 3.9563L84.1596 5.81536C84.4422 6.14903 84.4579 6.4986 84.1596 6.84816C84.0183 6.99117 83.8456 7.0865 83.6416 7.10239C83.4375 7.11828 83.2648 7.05472 83.1078 6.91172L81.3496 5.22745C81.0356 5.62468 80.7059 5.95836 80.3762 6.21259C79.8111 6.6416 79.2616 6.87994 78.7279 6.91172H77.5819C77.3778 6.91172 77.2208 6.83227 77.0795 6.68927C76.9382 6.54627 76.8754 6.38737 76.8597 6.18081C76.8597 5.97425 76.9225 5.79947 77.0638 5.64057C77.2051 5.49757 77.3778 5.41812 77.5819 5.40223H78.618C78.9006 5.40223 79.1831 5.27512 79.4971 5.08445C79.7954 4.87789 80.0466 4.65544 80.2507 4.40121C80.4547 4.14698 80.6431 3.86097 80.8158 3.55907L81.8519 1.81124H77.5348C77.3307 1.81124 77.158 1.7318 77.0167 1.58879C76.8754 1.44579 76.7969 1.27101 76.7969 1.06445H76.7812Z" fill="white"/>
<path d="M85.7305 1.06445C85.7305 0.857885 85.809 0.683102 85.9502 0.524209C86.0915 0.381205 86.2642 0.301758 86.484 0.301758H92.057C92.2611 0.301758 92.4338 0.365315 92.5908 0.508319C92.7321 0.651323 92.7949 0.841995 92.7949 1.04856C92.7949 1.25512 92.7164 1.4299 92.5751 1.58879C92.4338 1.7318 92.2611 1.81124 92.0413 1.81124H86.4683C86.2642 1.81124 86.0915 1.7318 85.9502 1.58879C85.809 1.44579 85.7305 1.27101 85.7305 1.06445ZM85.7776 3.57496C85.7776 3.3684 85.8561 3.19362 85.9973 3.03472C86.1386 2.89172 86.3113 2.81227 86.5311 2.81227H92.1041C92.3082 2.81227 92.4809 2.87583 92.6379 3.01883C92.7792 3.16184 92.842 3.35251 92.842 3.55907C92.842 3.76563 92.7635 3.94042 92.6222 4.09931C92.4809 4.24231 92.3082 4.32176 92.0884 4.32176H90.5186C90.4872 4.62366 90.4244 4.90967 90.3459 5.19567C90.2046 5.67235 89.9534 6.06959 89.6237 6.38737C89.2941 6.70516 88.8545 6.89583 88.3364 6.92761H86.5625C86.3584 6.92761 86.2014 6.84816 86.0601 6.70516C85.9189 6.56216 85.8561 6.40326 85.8404 6.1967C85.8404 5.99014 85.9032 5.81536 86.0444 5.65646C86.1857 5.51346 86.3584 5.43401 86.5625 5.41812H87.9597C88.2423 5.41812 88.4777 5.29101 88.6504 5.10034C88.8388 4.89378 88.9487 4.67133 89.0115 4.40121C89.0115 4.38532 89.0115 4.35354 89.0115 4.32176H86.4997C86.2956 4.32176 86.1229 4.24231 85.9816 4.09931C85.8404 3.95631 85.7619 3.78152 85.7619 3.57496H85.7776Z" fill="white"/>
<path d="M100.629 6.94421H94.8359C94.6318 6.94421 94.4591 6.88066 94.3021 6.73765C94.1451 6.57876 94.0823 6.38809 94.098 6.19741L94.4591 3.55978C94.5376 3.03544 94.6632 2.52698 94.8673 2.0503C95.0871 1.57362 95.3853 1.17638 95.7621 0.858597C96.1389 0.54081 96.5941 0.350138 97.1122 0.318359H98.1326C98.3367 0.318359 98.4937 0.397806 98.635 0.54081C98.7762 0.683814 98.839 0.842708 98.8547 1.04927C98.8547 1.25583 98.7919 1.43061 98.6507 1.58951C98.5094 1.73251 98.3367 1.81196 98.1326 1.82785H97.2849C97.0023 1.82785 96.7511 1.95496 96.547 2.14563C96.343 2.35219 96.186 2.57465 96.1075 2.82887C96.029 3.0831 95.9662 3.36911 95.9348 3.67101L95.7307 5.14872C95.715 5.3235 95.7778 5.41884 95.9191 5.43473H99.8124C100.064 5.43473 100.189 5.30761 100.173 5.05338V3.33733C100.221 2.89243 100.456 2.6382 100.911 2.60642C101.115 2.60642 101.304 2.66998 101.445 2.81299C101.586 2.95599 101.665 3.13077 101.665 3.33733V5.94318C101.665 6.26097 101.571 6.49931 101.382 6.67409C101.21 6.84888 100.943 6.94421 100.613 6.94421H100.629Z" fill="white"/>
<path d="M144.161 18.2088C143.439 18.9397 143.439 20.1155 144.161 20.8306C144.883 21.5615 146.045 21.5615 146.751 20.8306C147.473 20.0997 147.473 18.9238 146.751 18.2088C146.029 17.4779 144.867 17.4779 144.161 18.2088Z" fill="white"/>
<path d="M151.351 19.5753C152.246 17.8752 152.011 15.7301 150.598 14.3001C149.185 12.87 147.05 12.6158 145.37 13.5374C143.659 12.441 141.367 12.6317 139.876 14.1412C138.384 15.6507 138.196 17.9705 139.279 19.7024C138.557 21.053 138.573 22.6896 139.342 24.0402L126.83 36.6881L128.478 38.3565L130.425 36.3703L132.905 38.8809L134.962 36.7994L132.482 34.2888L134.334 32.4139L136.814 34.9244L138.871 32.8429L136.391 30.3324L140.975 25.6927C141.084 25.7563 141.21 25.8357 141.32 25.8834L141.43 25.9311H141.477C141.697 26.0423 141.901 26.09 142.058 26.1376H142.073L142.246 26.1853H142.293C142.497 26.233 142.686 26.2488 142.858 26.2647H143.078H143.125C143.329 26.2647 143.518 26.2647 143.675 26.233L143.879 26.2012H143.926C144.099 26.1535 144.287 26.1217 144.444 26.0582H144.475L144.679 25.9787H144.711C144.884 25.8993 145.056 25.8198 145.213 25.7404C146.924 26.8368 149.216 26.6461 150.708 25.1366C152.199 23.6271 152.403 21.2914 151.304 19.5594M149.059 23.4682C148.243 24.2945 146.924 24.2945 146.092 23.4682C145.684 23.0551 145.056 23.0074 144.585 23.3411L144.507 23.4047L144.444 23.4523L144.224 23.6112L144.099 23.6907L143.879 23.786L143.738 23.8337L143.502 23.8972H143.361L143.125 23.929H142.984L142.733 23.8972L142.623 23.8654C142.497 23.8337 142.419 23.8019 142.356 23.786L142.278 23.7542H142.262L141.995 23.6112H141.964L141.948 23.5794C141.838 23.5 141.744 23.4205 141.665 23.3411H141.65C140.865 22.5307 140.833 21.2596 141.555 20.4333C141.964 19.9726 141.932 19.2575 141.508 18.8285C140.692 17.9864 140.692 16.6517 141.508 15.8254C142.325 14.9992 143.659 14.9992 144.475 15.8254C144.915 16.2703 145.606 16.3021 146.061 15.889C146.877 15.1581 148.133 15.1899 148.918 15.9843C149.703 16.7788 149.734 18.0658 148.997 18.8921C148.62 19.3211 148.604 19.9408 148.949 20.4016C148.997 20.4651 149.075 20.5128 149.122 20.5605C149.891 21.3867 149.876 22.6896 149.075 23.5" fill="white"/>
<path d="M128.557 8.83448C126.94 9.6925 125.7 10.9954 124.805 12.7274C124.146 11.1543 122.874 9.86728 121.006 8.83448C122.591 8.00823 123.847 6.7212 124.805 4.98926C125.558 6.53052 126.814 7.80167 128.557 8.83448ZM134.821 11.3768C133.518 12.0759 132.372 13.4583 131.351 15.508C130.723 13.6807 129.53 12.3142 127.788 11.3768C129.279 10.4552 130.456 9.04104 131.351 7.15021C131.759 8.00823 132.262 8.77092 132.874 9.40649C133.533 10.0421 134.193 10.7094 134.821 11.3768Z" fill="white"/>
<path d="M103.659 29.9992V15.6352C103.627 14.8725 103.345 14.237 102.811 13.7285C102.277 13.2201 101.618 12.9658 100.864 12.9658C100.126 12.9976 99.5141 13.2677 98.996 13.7603C98.478 14.2687 98.2111 14.8884 98.1797 15.6352V29.8403C98.2111 31.9218 98.7134 34.0986 99.6868 36.3708C100.472 37.8009 101.649 38.2458 103.219 37.7214C103.894 37.3877 104.396 36.8793 104.695 36.196C105.009 35.5128 105.009 34.8295 104.71 34.1463C104.004 32.5574 103.659 31.175 103.659 29.9992Z" fill="white"/>
<path d="M126.688 26.9799C126.154 26.5508 125.51 26.3443 124.757 26.3443H123.25V24.5011H124.663C125.416 24.5011 126.06 24.2787 126.594 23.8497C127.127 23.4048 127.379 22.8645 127.379 22.2131C127.379 21.5616 127.127 21.0531 126.609 20.6082C126.076 20.1633 125.416 19.9568 124.663 19.9568H123.25V18.1931H124.663C125.416 18.1931 126.06 17.9706 126.594 17.5098C127.127 17.0649 127.379 16.5247 127.379 15.9209C127.379 15.3171 127.127 14.7451 126.609 14.2843C126.076 13.8394 125.416 13.6328 124.663 13.6328H109.247C108.493 13.6328 107.849 13.8553 107.316 14.3161C106.782 14.761 106.531 15.3012 106.531 15.9368C106.531 16.5723 106.798 17.0808 107.347 17.5416C107.865 17.9865 108.493 18.1931 109.247 18.1931H117.771V19.9568H109.247C108.493 19.9568 107.849 20.1792 107.316 20.6082C106.782 21.0531 106.531 21.5775 106.531 22.2131C106.531 22.8486 106.798 23.4206 107.347 23.8497C107.865 24.2946 108.493 24.5011 109.247 24.5011H117.771V26.3443H114.113C112.386 26.3443 110.911 26.6938 109.686 27.3771C108.462 28.0603 107.583 28.8389 107.049 29.6969C106.515 30.555 106.232 31.4289 106.232 32.3028C106.232 33.2561 106.499 34.1777 107.017 35.0357C107.551 35.8938 108.43 36.6565 109.67 37.3079C110.832 37.9594 112.308 38.3407 114.097 38.4202H115.887C117.787 38.309 119.2 37.8799 120.173 37.149C121.13 36.4022 121.884 35.4171 122.418 34.1459C122.826 33.129 123.077 32.0327 123.187 30.8569H124.725C125.479 30.8569 126.123 30.6344 126.625 30.2054C127.159 29.824 127.441 29.2838 127.441 28.6006C127.441 27.9173 127.174 27.4089 126.656 26.9799H126.688ZM115.149 32.3187V34.4161C115.149 34.8292 114.82 35.1629 114.411 35.1629C114.003 35.1629 113.674 34.8292 113.674 34.4161V32.3187C113.25 32.0644 112.967 31.6037 112.967 31.0634C112.967 30.2531 113.611 29.6016 114.411 29.6016C115.212 29.6016 115.856 30.2531 115.856 31.0634C115.856 31.6037 115.573 32.0644 115.134 32.3187H115.149Z" fill="white"/>
</g>
<defs>
<clipPath id="clip0_3166_68873">
<rect width="152" height="40" fill="white"/>
</clipPath>
</defs>
</svg>