<svg width="174" height="40" viewBox="0 0 174 40" fill="none" xmlns="http://www.w3.org/2000/svg">
<path d="M22.4623 10.5909C20.6113 11.5609 19.1916 13.0337 18.1673 14.9916C17.4125 13.2133 15.9569 11.7584 13.8184 10.5909C15.6334 9.65689 17.0711 8.20198 18.1673 6.24414C19.0299 7.98644 20.4676 9.42339 22.4623 10.5909ZM29.6327 13.4648C28.1411 14.2551 26.8292 15.8178 25.6611 18.1349C24.9423 16.0693 23.5765 14.5246 21.5818 13.4648C23.289 12.423 24.6368 10.8244 25.6611 8.68695C26.1284 9.65689 26.7034 10.5191 27.4043 11.2375C28.1591 11.956 28.9139 12.7104 29.6327 13.4648Z" fill="#00A0E9"/>
<path d="M3.26951 9.42188C4.11414 9.4578 4.81501 9.76315 5.40804 10.32C6.00108 10.8947 6.30659 11.5953 6.34253 12.4395V20.5582H24.9603C25.8229 20.5582 26.5777 20.8456 27.1887 21.4384C27.7817 22.0491 28.0693 22.8035 28.0693 23.6656C28.0693 24.5278 27.7638 25.2642 27.1707 25.8749C26.5777 26.4856 25.8229 26.773 24.9603 26.773H6.32456V35.1792C6.14485 37.0293 5.12051 38.0351 3.25154 38.1968C2.38894 38.1968 1.63417 37.9094 1.00519 37.3346C0.37621 36.7598 0.0527344 36.0413 0.0527344 35.1792V12.4395C0.0886761 11.5773 0.412151 10.8588 1.02316 10.284C1.63417 9.70927 2.38894 9.42188 3.25154 9.42188" fill="#00A0E9"/>
<path d="M33.6426 13.2832C33.6426 12.421 33.9481 11.6846 34.5411 11.0739C35.1521 10.4632 35.871 10.1758 36.7515 10.1758H56.2499C56.4296 10.1758 56.6273 10.1758 56.807 10.2297H57.0945C59.269 10.2836 61.0481 10.8763 62.4319 11.972C63.8336 13.0676 64.822 14.307 65.451 15.708C66.062 17.1091 66.3854 18.5101 66.3854 19.9291C66.3854 21.3481 66.0799 22.8569 65.4869 24.2399C64.8759 25.6409 63.8695 26.8803 62.4678 27.976C61.0661 29.0717 59.269 29.6105 57.1125 29.5746H54.5067C53.6441 29.5746 52.9073 29.2692 52.3323 28.6406C51.7212 28.0478 51.3978 27.3294 51.3978 26.4672C51.3978 25.605 51.7033 24.8686 52.2963 24.2579C52.9073 23.6472 53.6441 23.3598 54.5067 23.3598H57.3821C57.9751 23.3598 58.4603 23.1622 58.8377 22.785C59.2331 22.3898 59.5026 21.9408 59.7003 21.4379C59.88 20.9349 59.9878 20.414 59.9878 19.8752C59.9878 19.3723 59.898 18.8693 59.7003 18.3664C59.5206 17.8635 59.2331 17.4144 58.8377 17.0192C58.4423 16.6241 57.9571 16.4265 57.3821 16.3906H36.7695C35.9069 16.3906 35.1701 16.0852 34.595 15.4566C33.984 14.8638 33.6605 14.1454 33.6605 13.2832M47.5879 18.7077C48.4326 18.7436 49.0975 19.0489 49.6007 19.6058C50.1039 20.1805 50.3375 20.881 50.2656 21.7253L49.9781 24.186C49.6726 26.3774 49.0975 28.461 48.2529 30.4008C47.3543 32.3587 46.1143 33.9932 44.5149 35.3403C42.9155 36.6875 41.0466 37.4239 38.8721 37.5497H36.8234C35.9788 37.5137 35.2779 37.2263 34.7029 36.6516C34.1278 36.0768 33.8223 35.3763 33.8043 34.5321C33.8043 33.6699 34.0919 32.9155 34.6669 32.3048C35.242 31.6941 35.9608 31.3528 36.8234 31.3348H38.1173C39.2854 31.281 40.3277 30.8319 41.2083 29.9877C42.0889 29.1435 42.6999 28.2095 43.0413 27.1318C43.3828 26.072 43.6344 24.9045 43.7781 23.6292L43.9578 21.7253C44.1196 20.8631 44.5329 20.1446 45.2158 19.5698C45.8987 18.9951 46.6714 18.7077 47.534 18.7077" fill="#00A0E9"/>
<path d="M73.7157 31.3355L81.1916 22.9294V20.6482H76.1238C75.2612 20.6482 74.5244 20.3429 73.9134 19.7501C73.3024 19.1394 73.0148 18.403 73.0148 17.5408C73.0148 16.6786 73.3024 15.9242 73.8954 15.3135C74.5064 14.7208 75.2612 14.4334 76.1238 14.4334H81.1916V11.8828C81.2275 11.0386 81.533 10.3381 82.1261 9.76333C82.7191 9.18855 83.42 8.8832 84.2646 8.86523C85.1272 8.86523 85.882 9.15262 86.493 9.7274C87.104 10.3022 87.4454 11.0207 87.4634 11.8828V16.8583C89.4402 15.3674 91.417 14.5771 93.4117 14.4514H96.1433C97.9404 14.4514 99.4859 14.9902 100.78 16.05C102.074 17.1097 102.739 18.6365 102.775 20.6303V28.7131C102.864 30.4195 103.763 31.2457 105.47 31.2277C106.315 31.3894 106.944 31.8205 107.375 32.5569C107.806 33.2754 107.968 34.0657 107.842 34.9099C107.339 36.76 106.171 37.6042 104.32 37.4246C99.0905 36.778 96.4848 33.8143 96.5207 28.5514V22.9294C96.5746 21.4745 95.8737 20.738 94.3822 20.7021H93.5016C92.3335 20.756 90.9677 21.5463 89.4222 23.0192C88.6854 23.7377 88.0205 24.3663 87.4634 24.9231V35.2332C87.4634 36.0954 87.1399 36.8139 86.5109 37.3887C85.882 37.9634 85.1272 38.2508 84.2646 38.2508C82.4136 38.0892 81.3892 37.0833 81.1916 35.2332V32.036L78.1725 35.5206C77.7052 36.0415 77.202 36.4187 76.6629 36.6343C76.1238 36.8498 75.4409 36.7959 74.6502 36.4547C73.8774 36.1134 73.3383 35.5386 73.0328 34.7303C72.7273 33.922 72.7453 33.1137 73.0867 32.3234C73.2664 31.9462 73.4821 31.6409 73.7337 31.3894" fill="#00A0E9"/>
<path d="M165.026 15.3658C164.2 16.192 164.2 17.5212 165.026 18.3295C165.853 19.1557 167.183 19.1557 167.991 18.3295C168.818 17.5032 168.818 16.1741 167.991 15.3658C167.165 14.5395 165.835 14.5395 165.026 15.3658Z" fill="#00A0E9"/>
<path d="M173.256 16.9114C174.28 14.9895 174.011 12.5647 172.393 10.9481C170.776 9.33154 168.332 9.04415 166.409 10.0859C164.45 8.84657 161.827 9.06211 160.119 10.7685C158.412 12.4749 158.196 15.0973 159.436 17.0551C158.61 18.5819 158.628 20.432 159.508 21.9587L145.186 36.2564L147.072 38.1424L149.301 35.8971L152.14 38.7351L154.494 36.3821L151.655 33.5441L153.776 31.4246L156.615 34.2626L158.969 31.9096L156.13 29.0716L161.377 23.8268C161.503 23.8986 161.647 23.9884 161.773 24.0423L161.898 24.0962H161.952C162.204 24.2219 162.438 24.2758 162.617 24.3297H162.635L162.833 24.3836H162.887C163.12 24.4375 163.336 24.4554 163.534 24.4734H163.785H163.839C164.073 24.4734 164.289 24.4734 164.468 24.4375L164.702 24.4015H164.756C164.953 24.3477 165.169 24.3117 165.349 24.2399H165.385L165.618 24.1501H165.654C165.852 24.0603 166.05 23.9705 166.229 23.8806C168.188 25.12 170.812 24.9045 172.519 23.1981C174.226 21.4917 174.46 18.8513 173.202 16.8935M170.632 21.3121C169.698 22.2461 168.188 22.2461 167.236 21.3121C166.769 20.8451 166.05 20.7912 165.511 21.1684L165.421 21.2403L165.349 21.2941L165.097 21.4738L164.953 21.5636L164.702 21.6713L164.54 21.7252L164.271 21.7971H164.109L163.839 21.833H163.678L163.39 21.7971L163.264 21.7611C163.12 21.7252 163.031 21.6893 162.959 21.6713L162.869 21.6354H162.851L162.545 21.4738H162.509L162.491 21.4378C162.366 21.348 162.258 21.2582 162.168 21.1684H162.15C161.251 20.2524 161.216 18.8154 162.042 17.8814C162.509 17.3605 162.473 16.5522 161.988 16.0672C161.054 15.1153 161.054 13.6065 161.988 12.6724C162.923 11.7384 164.45 11.7384 165.385 12.6724C165.888 13.1754 166.679 13.2113 167.2 12.7443C168.134 11.918 169.572 11.954 170.471 12.8521C171.369 13.7502 171.405 15.2051 170.56 16.1391C170.129 16.6241 170.111 17.3246 170.506 17.8455C170.56 17.9173 170.65 17.9712 170.704 18.0251C171.585 18.9591 171.567 20.432 170.65 21.348" fill="#00A0E9"/>
<path d="M147.163 4.7706C145.312 5.74054 143.893 7.21341 142.868 9.17125C142.114 7.39303 140.658 5.93812 138.52 4.7706C140.335 3.83658 141.772 2.38167 142.868 0.423828C143.731 2.16613 145.169 3.60308 147.163 4.7706ZM154.334 7.64449C152.842 8.43482 151.53 9.9975 150.362 12.3146C149.643 10.249 148.278 8.70424 146.283 7.64449C147.99 6.60271 149.338 5.0041 150.362 2.86664C150.83 3.83658 151.405 4.69875 152.105 5.41722C152.86 6.1357 153.615 6.8901 154.334 7.64449Z" fill="#00A0E9"/>
<path d="M118.662 28.6946V12.457C118.627 11.5949 118.303 10.8764 117.692 10.3016C117.081 9.72684 116.326 9.43945 115.464 9.43945C114.619 9.47538 113.918 9.78073 113.325 10.3375C112.732 10.9123 112.427 11.6128 112.391 12.457V28.5149C112.427 30.868 113.002 33.3287 114.116 35.8973C115.014 37.5138 116.362 38.0168 118.159 37.424C118.932 37.0468 119.507 36.4721 119.849 35.6997C120.208 34.9273 120.208 34.155 119.866 33.3826C119.058 31.5864 118.662 30.0237 118.662 28.6946Z" fill="#00A0E9"/>
<path d="M145.025 25.2813C144.414 24.7963 143.678 24.5628 142.815 24.5628H141.09V22.4793H142.707C143.57 22.4793 144.307 22.2278 144.918 21.7428C145.529 21.2399 145.816 20.6292 145.816 19.8928C145.816 19.1563 145.529 18.5815 144.936 18.0786C144.325 17.5757 143.57 17.3422 142.707 17.3422H141.09V15.3484H142.707C143.57 15.3484 144.307 15.0969 144.918 14.5761C145.529 14.0731 145.816 13.4624 145.816 12.7799C145.816 12.0973 145.529 11.4507 144.936 10.9298C144.325 10.4269 143.57 10.1934 142.707 10.1934H125.06C124.197 10.1934 123.46 10.4448 122.849 10.9657C122.238 11.4687 121.951 12.0794 121.951 12.7978C121.951 13.5163 122.256 14.0911 122.885 14.612C123.478 15.1149 124.197 15.3484 125.06 15.3484H134.818V17.3422H125.06C124.197 17.3422 123.46 17.5936 122.849 18.0786C122.238 18.5815 121.951 19.1743 121.951 19.8928C121.951 20.6112 122.256 21.2579 122.885 21.7428C123.478 22.2458 124.197 22.4793 125.06 22.4793H134.818V24.5628H130.631C128.654 24.5628 126.965 24.958 125.563 25.7304C124.161 26.5027 123.155 27.3829 122.544 28.3528C121.933 29.3227 121.609 30.3106 121.609 31.2985C121.609 32.3763 121.915 33.418 122.508 34.388C123.119 35.3579 124.125 36.2201 125.545 36.9565C126.875 37.693 128.564 38.1241 130.613 38.2139H132.661C134.836 38.0881 136.453 37.6032 137.567 36.7769C138.664 35.9327 139.526 34.8191 140.137 33.3821C140.605 32.2326 140.892 30.9932 141.018 29.664H142.779C143.642 29.664 144.378 29.4125 144.954 28.9276C145.565 28.4965 145.888 27.8858 145.888 27.1134C145.888 26.3411 145.582 25.7663 144.989 25.2813H145.025ZM131.817 31.3165V33.6875C131.817 34.1545 131.439 34.5317 130.972 34.5317C130.505 34.5317 130.128 34.1545 130.128 33.6875V31.3165C129.642 31.0291 129.319 30.5082 129.319 29.8975C129.319 28.9815 130.056 28.245 130.972 28.245C131.889 28.245 132.626 28.9815 132.626 29.8975C132.626 30.5082 132.302 31.0291 131.799 31.3165H131.817Z" fill="#00A0E9"/>
</svg>
