<svg width="272" height="63" viewBox="0 0 272 63" fill="none" xmlns="http://www.w3.org/2000/svg">
<path d="M35.114 16.6792C32.2205 18.2068 30.0012 20.5266 28.3999 23.6102C27.22 20.8095 24.9446 18.518 21.6016 16.6792C24.4389 15.2081 26.6863 12.9166 28.3999 9.83301C29.7483 12.5771 31.9957 14.8403 35.114 16.6792ZM46.3228 21.2056C43.9912 22.4503 41.9404 24.9115 40.1144 28.5609C38.9907 25.3076 36.8557 22.8747 33.7375 21.2056C36.4062 19.5647 38.5132 17.0469 40.1144 13.6804C40.8448 15.2081 41.7438 16.566 42.8394 17.6976C44.0193 18.8292 45.1991 20.0174 46.3228 21.2056Z" fill="#00A0E9"/>
<path d="M5.11251 14.8398C6.43286 14.8964 7.52846 15.3774 8.4555 16.2543C9.38255 17.1596 9.86012 18.2629 9.91631 19.5926V32.3796H39.02C40.3684 32.3796 41.5483 32.8322 42.5034 33.7658C43.4305 34.7277 43.88 35.9158 43.88 37.2738C43.88 38.6317 43.4024 39.7916 42.4753 40.7534C41.5483 41.7153 40.3684 42.1679 39.02 42.1679H9.88821V55.4076C9.60729 58.3215 8.00603 59.9057 5.08442 60.1603C3.73599 60.1603 2.55611 59.7077 1.57288 58.8024C0.589647 57.8971 0.0839844 56.7655 0.0839844 55.4076V19.5926C0.140169 18.2346 0.645831 17.103 1.60097 16.1978C2.55611 15.2925 3.73599 14.8398 5.08442 14.8398" fill="#00A0E9"/>
<path d="M52.5898 20.9195C52.5898 19.5616 53.0674 18.4017 53.9945 17.4399C54.9496 16.478 56.0733 16.0254 57.4498 16.0254H87.93C88.2109 16.0254 88.52 16.0254 88.8009 16.1103H89.2504C92.6495 16.1951 95.4307 17.1287 97.5938 18.8544C99.785 20.5801 101.33 22.5321 102.313 24.7387C103.268 26.9453 103.774 29.1519 103.774 31.3868C103.774 33.6217 103.297 35.9981 102.369 38.1764C101.414 40.383 99.8412 42.335 97.65 44.0607C95.4588 45.7864 92.6495 46.6351 89.2785 46.5785H85.2051C83.8566 46.5785 82.7048 46.0976 81.8059 45.1074C80.8507 44.1739 80.3451 43.0423 80.3451 41.6844C80.3451 40.3264 80.8227 39.1666 81.7497 38.2047C82.7048 37.2428 83.8566 36.7902 85.2051 36.7902H89.6998C90.6269 36.7902 91.3854 36.479 91.9753 35.8849C92.5933 35.2625 93.0147 34.5553 93.3237 33.7632C93.6047 32.9711 93.7732 32.1507 93.7732 31.302C93.7732 30.5098 93.6328 29.7177 93.3237 28.9256C93.0428 28.1335 92.5933 27.4262 91.9753 26.8039C91.3573 26.1815 90.5988 25.8703 89.6998 25.8137H57.4779C56.1295 25.8137 54.9777 25.3328 54.0787 24.3426C53.1236 23.4091 52.6179 22.2775 52.6179 20.9195M74.3895 29.4631C75.7098 29.5197 76.7493 30.0006 77.5358 30.8776C78.3224 31.7829 78.6876 32.8862 78.5753 34.2158L78.1258 38.0915C77.6482 41.5429 76.7493 44.8245 75.4289 47.8799C74.0243 50.9635 72.0859 53.5378 69.5857 55.6596C67.0855 57.7813 64.1639 58.9412 60.7647 59.1392H57.5622C56.2418 59.0827 55.1462 58.63 54.2473 57.7247C53.3483 56.8195 52.8708 55.7162 52.8427 54.3865C52.8427 53.0286 53.2922 51.8404 54.1911 50.8786C55.0901 49.9167 56.2138 49.3792 57.5622 49.3509H59.5848C61.4108 49.2661 63.0402 48.5588 64.4167 47.2292C65.7932 45.8996 66.7484 44.4285 67.2821 42.7311C67.8159 41.062 68.2092 39.2231 68.4339 37.2145L68.7148 34.2158C68.9677 32.8579 69.6138 31.7263 70.6813 30.821C71.7488 29.9157 72.9568 29.4631 74.3052 29.4631" fill="#00A0E9"/>
<path d="M115.236 49.3536L126.922 36.1139V32.5211H119C117.652 32.5211 116.5 32.0402 115.545 31.1066C114.59 30.1447 114.14 28.9848 114.14 27.6269C114.14 26.269 114.59 25.0808 115.517 24.119C116.472 23.1854 117.652 22.7328 119 22.7328H126.922V18.7156C126.978 17.386 127.456 16.2827 128.383 15.3774C129.31 14.4721 130.406 13.9912 131.726 13.9629C133.075 13.9629 134.254 14.4155 135.21 15.3208C136.165 16.2261 136.698 17.3577 136.727 18.7156V26.5519C139.817 24.2038 142.907 22.9591 146.025 22.7611H150.295C153.104 22.7611 155.52 23.6098 157.543 25.2789C159.566 26.948 160.605 29.3526 160.661 32.4928V45.2233C160.802 47.9108 162.206 49.2121 164.875 49.1839C166.195 49.4385 167.179 50.1174 167.853 51.2773C168.527 52.4089 168.78 53.6537 168.583 54.9833C167.797 57.8971 165.971 59.2268 163.077 58.9439C154.902 57.9254 150.829 53.2576 150.885 44.9686V36.1139C150.969 33.8224 149.874 32.6625 147.542 32.606H146.166C144.34 32.6908 142.205 33.9356 139.789 36.2554C138.637 37.387 137.597 38.3771 136.727 39.2541V55.4925C136.727 56.8504 136.221 57.982 135.238 58.8873C134.254 59.7926 133.075 60.2452 131.726 60.2452C128.833 59.9906 127.231 58.4064 126.922 55.4925V50.4569L122.203 55.9451C121.472 56.7656 120.686 57.3596 119.843 57.6991C119 58.0386 117.933 57.9537 116.697 57.4162C115.489 56.8787 114.646 55.9734 114.168 54.7004C113.691 53.4273 113.719 52.1543 114.253 50.9095C114.534 50.3154 114.871 49.8345 115.264 49.4385" fill="#00A0E9"/>
<path d="M257.971 24.2026C256.679 25.5039 256.679 27.5974 257.971 28.8704C259.263 30.1717 261.342 30.1717 262.606 28.8704C263.899 27.5691 263.899 25.4756 262.606 24.2026C261.314 22.9012 259.235 22.9012 257.971 24.2026Z" fill="#00A0E9"/>
<path d="M270.837 26.6355C272.439 23.6085 272.017 19.7894 269.489 17.2433C266.961 14.6972 263.14 14.2445 260.134 15.8854C257.072 13.9334 252.971 14.2728 250.302 16.9604C247.633 19.6479 247.296 23.7782 249.234 26.8618C247.942 29.2665 247.97 32.1804 249.347 34.585L226.957 57.1038L229.907 60.0742L233.39 56.538L237.829 61.0078L241.509 57.3018L237.07 52.832L240.385 49.4938L244.824 53.9636L248.504 50.2576L244.065 45.7878L252.268 37.5272C252.465 37.6403 252.69 37.7818 252.886 37.8666L253.083 37.9515H253.167C253.56 38.1495 253.926 38.2344 254.207 38.3193H254.235L254.544 38.4041H254.628C254.993 38.489 255.33 38.5173 255.639 38.5456H256.033H256.117C256.482 38.5456 256.819 38.5456 257.1 38.489L257.465 38.4324H257.55C257.859 38.3476 258.196 38.291 258.477 38.1778H258.533L258.898 38.0364H258.954C259.263 37.8949 259.572 37.7535 259.853 37.612C262.915 39.564 267.017 39.2245 269.685 36.537C272.354 33.8495 272.719 29.6908 270.753 26.6072M266.736 33.5666C265.275 35.0376 262.915 35.0376 261.426 33.5666C260.696 32.831 259.572 32.7462 258.729 33.3402L258.589 33.4534L258.477 33.5383L258.083 33.8212L257.859 33.9626L257.465 34.1324L257.212 34.2172L256.791 34.3304H256.538L256.117 34.387H255.864L255.415 34.3304L255.218 34.2738C254.993 34.2172 254.853 34.1607 254.74 34.1324L254.6 34.0758H254.572L254.094 33.8212H254.038L254.01 33.7646C253.813 33.6231 253.645 33.4817 253.504 33.3402H253.476C252.072 31.8975 252.015 29.6343 253.308 28.1632C254.038 27.3428 253.982 26.0697 253.223 25.3059C251.763 23.8065 251.763 21.4302 253.223 19.9591C254.684 18.488 257.072 18.488 258.533 19.9591C259.319 20.7512 260.555 20.8078 261.37 20.0723C262.831 18.7709 265.078 18.8275 266.483 20.242C267.888 21.6565 267.944 23.948 266.623 25.4191C265.949 26.1829 265.921 27.2862 266.539 28.1066C266.623 28.2198 266.764 28.3046 266.848 28.3895C268.225 29.8606 268.197 32.1804 266.764 33.6231" fill="#00A0E9"/>
<path d="M230.05 7.51218C227.156 9.03983 224.937 11.3596 223.335 14.4432C222.156 11.6425 219.88 9.35102 216.537 7.51218C219.374 6.0411 221.622 3.74962 223.335 0.666016C224.684 3.41014 226.931 5.67333 230.05 7.51218ZM241.258 12.0386C238.927 13.2833 236.876 15.7445 235.05 19.3939C233.926 16.1406 231.791 13.7077 228.673 12.0386C231.342 10.3977 233.449 7.87995 235.05 4.51345C235.78 6.0411 236.679 7.39902 237.775 8.53061C238.955 9.66221 240.135 10.8504 241.258 12.0386Z" fill="#00A0E9"/>
<path d="M185.494 45.194V19.6199C185.437 18.262 184.932 17.1304 183.977 16.2251C183.022 15.3198 181.842 14.8672 180.493 14.8672C179.173 14.9238 178.077 15.4047 177.15 16.2817C176.223 17.187 175.746 18.2903 175.689 19.6199V44.9111C175.746 48.6171 176.645 52.4928 178.386 56.5382C179.791 59.0843 181.898 59.8765 184.707 58.9429C185.915 58.3488 186.814 57.4435 187.348 56.2271C187.91 55.0106 187.91 53.7941 187.376 52.5777C186.112 49.7487 185.494 47.2874 185.494 45.194Z" fill="#00A0E9"/>
<path d="M226.704 39.8192C225.749 39.0554 224.597 38.6876 223.249 38.6876H220.552V35.406H223.08C224.428 35.406 225.58 35.0099 226.535 34.2461C227.491 33.454 227.94 32.4921 227.94 31.3322C227.94 30.1723 227.491 29.2671 226.563 28.4749C225.608 27.6828 224.428 27.3151 223.08 27.3151H220.552V24.1749H223.08C224.428 24.1749 225.58 23.7788 226.535 22.9584C227.491 22.1663 227.94 21.2044 227.94 20.1294C227.94 19.0544 227.491 18.036 226.563 17.2156C225.608 16.4234 224.428 16.0557 223.08 16.0557H195.493C194.145 16.0557 192.993 16.4517 192.038 17.2721C191.083 18.0642 190.633 19.0261 190.633 20.1577C190.633 21.2893 191.111 22.1946 192.094 23.015C193.021 23.8071 194.145 24.1749 195.493 24.1749H210.747V27.3151H195.493C194.145 27.3151 192.993 27.7111 192.038 28.4749C191.083 29.2671 190.633 30.2006 190.633 31.3322C190.633 32.4638 191.111 33.4823 192.094 34.2461C193.021 35.0382 194.145 35.406 195.493 35.406H210.747V38.6876H204.202C201.112 38.6876 198.471 39.31 196.28 40.5265C194.089 41.7429 192.516 43.1291 191.56 44.6568C190.605 46.1844 190.1 47.7404 190.1 49.2963C190.1 50.9937 190.577 52.6345 191.504 54.1622C192.459 55.6899 194.033 57.0478 196.252 58.2077C198.331 59.3675 200.971 60.0465 204.174 60.188H207.376C210.776 59.9899 213.304 59.2261 215.046 57.9248C216.759 56.5951 218.108 54.8412 219.063 52.578C219.793 50.7674 220.243 48.8154 220.439 46.7219H223.192C224.541 46.7219 225.693 46.3259 226.592 45.5621C227.547 44.8831 228.052 43.9212 228.052 42.7048C228.052 41.4883 227.575 40.583 226.648 39.8192H226.704ZM206.056 49.3246V53.0589C206.056 53.7944 205.466 54.3885 204.736 54.3885C204.005 54.3885 203.415 53.7944 203.415 53.0589V49.3246C202.657 48.872 202.151 48.0516 202.151 47.0897C202.151 45.6469 203.303 44.487 204.736 44.487C206.168 44.487 207.32 45.6469 207.32 47.0897C207.32 48.0516 206.815 48.872 206.028 49.3246H206.056Z" fill="#00A0E9"/>
</svg>
