<svg width="22" height="28" viewBox="0 0 22 28" fill="none" xmlns="http://www.w3.org/2000/svg">
<path d="M8.64116 24.8645C8.64116 26.2288 9.69597 27.3327 10.9997 27.3327C12.3034 27.3327 13.3582 26.2288 13.3582 24.8645H8.64116ZM10.9997 6.24741C14.2708 6.24741 16.9256 9.02571 16.9256 12.449V21.1311H5.07375V12.449C5.07375 9.02571 7.72856 6.24741 10.9997 6.24741ZM10.9997 0.666016C10.016 0.666016 9.2219 1.49702 9.2219 2.52648V3.97764C5.50041 4.82105 2.70338 8.29392 2.70338 12.449V19.8908L0.333008 22.3714V23.6118H21.6663V22.3714L19.296 19.8908V12.449C19.296 8.29392 16.4989 4.82105 12.7775 3.97764V2.52648C12.7775 1.49702 11.9834 0.666016 10.9997 0.666016ZM9.81449 8.72803H12.1849V13.6893H9.81449V8.72803ZM9.81449 16.1699H12.1849V18.6505H9.81449V16.1699Z" fill="#00A0E9"/>
</svg>
