<svg width="28" height="28" viewBox="0 0 28 28" fill="none" xmlns="http://www.w3.org/2000/svg">
<path d="M13.9993 0.667969C6.63935 0.667969 0.666016 6.6413 0.666016 14.0013C0.666016 21.3613 6.63935 27.3346 13.9993 27.3346C21.3594 27.3346 27.3327 21.3613 27.3327 14.0013C27.3327 6.6413 21.3594 0.667969 13.9993 0.667969ZM7.42602 22.3746C7.99935 21.1746 11.4927 20.0013 13.9993 20.0013C16.506 20.0013 20.0127 21.1746 20.5727 22.3746C18.7593 23.8146 16.4793 24.668 13.9993 24.668C11.5193 24.668 9.23935 23.8146 7.42602 22.3746ZM22.4794 20.4413C20.5727 18.1213 15.946 17.3346 13.9993 17.3346C12.0527 17.3346 7.42602 18.1213 5.51935 20.4413C4.15935 18.6546 3.33268 16.428 3.33268 14.0013C3.33268 8.1213 8.11935 3.33464 13.9993 3.33464C19.8793 3.33464 24.666 8.1213 24.666 14.0013C24.666 16.428 23.8393 18.6546 22.4794 20.4413ZM13.9993 6.0013C11.4127 6.0013 9.33268 8.0813 9.33268 10.668C9.33268 13.2546 11.4127 15.3346 13.9993 15.3346C16.586 15.3346 18.666 13.2546 18.666 10.668C18.666 8.0813 16.586 6.0013 13.9993 6.0013ZM13.9993 12.668C12.8927 12.668 11.9993 11.7746 11.9993 10.668C11.9993 9.5613 12.8927 8.66797 13.9993 8.66797C15.106 8.66797 15.9993 9.5613 15.9993 10.668C15.9993 11.7746 15.106 12.668 13.9993 12.668Z" fill="#00A0E9"/>
</svg>
