<svg width="24" height="24" viewBox="0 0 24 24" fill="none" xmlns="http://www.w3.org/2000/svg">
<g clip-path="url(#clip0_8339_30515)">
<path d="M10.1634 13.8074V13.2913C10.1634 12.3736 7.60803 11.2268 5.51822 11.2268C3.42841 11.2268 0.873047 12.8898 0.873047 13.8074V18.9688" stroke="#00A0E9" stroke-width="1.7" stroke-miterlimit="10"/>
<path d="M12.7435 20L15.3241 14.8387H8.0983L6.54991 18.4516H3.45312" stroke="#00A0E9" stroke-width="1.7" stroke-miterlimit="10" stroke-linejoin="round"/>
<path d="M-0.675781 20H24.0985" stroke="#00A0E9" stroke-width="1.7" stroke-miterlimit="10" stroke-linejoin="round"/>
<path d="M3.73393 9.26607C4.32531 9.85745 5.08506 10.15 6 10.15C6.91494 10.15 7.67469 9.85745 8.26607 9.26607C8.85745 8.67469 9.15 7.91494 9.15 7C9.15 6.08506 8.85745 5.32531 8.26607 4.73393C7.67469 4.14255 6.91494 3.85 6 3.85C5.08506 3.85 4.32531 4.14255 3.73393 4.73393C3.14255 5.32531 2.85 6.08506 2.85 7C2.85 7.91494 3.14255 8.67469 3.73393 9.26607ZM7.18393 8.18393C6.8745 8.49337 6.4838 8.65 6 8.65C5.51621 8.65 5.1255 8.49337 4.81607 8.18393C4.50663 7.8745 4.35 7.48379 4.35 7C4.35 6.51621 4.50663 6.1255 4.81607 5.81607C5.1255 5.50663 5.51621 5.35 6 5.35C6.4838 5.35 6.8745 5.50663 7.18393 5.81607C7.49337 6.1255 7.65 6.51621 7.65 7C7.65 7.48379 7.49337 7.8745 7.18393 8.18393Z" fill="#00A0E9" stroke="#00A0E9" stroke-width="0.3"/>
</g>
<defs>
<clipPath id="clip0_8339_30515">
<rect width="24" height="24" fill="white"/>
</clipPath>
</defs>
</svg>
