<svg width="22" height="22" viewBox="0 0 22 22" fill="none" xmlns="http://www.w3.org/2000/svg">
<path d="M11.8875 21.15C12.3456 21.15 12.7399 20.9869 13.0634 20.6634L20.6634 13.0634C21.0021 12.7247 21.175 12.3226 21.175 11.8625C21.175 11.4024 21.0021 11.0003 20.6634 10.6616L11.3384 1.33661C11.1588 1.15707 10.9577 1.03245 10.735 0.9675C10.5241 0.905989 10.3123 0.875 10.1 0.875H2.5C2.0365 0.875 1.64541 1.02781 1.33661 1.33661C1.02781 1.64541 0.875 2.0365 0.875 2.5V10.1C0.875 10.3123 0.905999 10.5168 0.968384 10.7129C1.03399 10.9191 1.15895 11.1107 1.33661 11.2884L10.7116 20.6634C11.0351 20.9869 11.4294 21.15 11.8875 21.15ZM10.0482 2.625L19.3732 11.95L11.95 19.3732L2.625 10.0482V2.625H10.0482ZM5.125 6.525C5.50974 6.525 5.84526 6.38152 6.12589 6.10089C6.40652 5.82026 6.55 5.48474 6.55 5.1C6.55 4.71526 6.40652 4.37974 6.12589 4.09911C5.84526 3.81848 5.50974 3.675 5.125 3.675C4.74026 3.675 4.40474 3.81848 4.12411 4.09911C3.84348 4.37974 3.7 4.71526 3.7 5.1C3.7 5.48474 3.84348 5.82026 4.12411 6.10089C4.40474 6.38152 4.74026 6.525 5.125 6.525Z" fill="#00A0E9" stroke="#00A0E9" stroke-width="0.25"/>
</svg>
