<svg width="220" height="51" viewBox="0 0 220 51" fill="none" xmlns="http://www.w3.org/2000/svg">
<g clip-path="url(#clip0_8375_130110)">
<path d="M28.4018 13.5021C26.0615 14.7388 24.2665 16.6167 22.9713 19.1129C22.017 16.8457 20.1765 14.9907 17.4727 13.5021C19.7676 12.3112 21.5853 10.4562 22.9713 7.95996C24.062 10.1814 25.8797 12.0135 28.4018 13.5021ZM37.4678 17.1663C35.5819 18.174 33.9232 20.1664 32.4463 23.1207C31.5374 20.487 29.8106 18.5175 27.2885 17.1663C29.447 15.838 31.1512 13.7998 32.4463 11.0745C33.0371 12.3112 33.7642 13.4105 34.6503 14.3265C35.6046 15.2426 36.5589 16.2045 37.4678 17.1663Z" fill="#00A0E9"/>
<path d="M4.13555 12.0137C5.20347 12.0595 6.08962 12.4488 6.83944 13.1587C7.58926 13.8916 7.97553 14.7847 8.02097 15.8611V26.2125H31.5607C32.6514 26.2125 33.6057 26.5789 34.3782 27.3347C35.128 28.1133 35.4916 29.0752 35.4916 30.1745C35.4916 31.2737 35.1053 32.2127 34.3555 32.9913C33.6057 33.77 32.6514 34.1364 31.5607 34.1364H7.99825V44.8542C7.77103 47.2131 6.47589 48.4956 4.11283 48.7017C3.02219 48.7017 2.06787 48.3352 1.27261 47.6024C0.477351 46.8696 0.0683594 45.9535 0.0683594 44.8542V15.8611C0.113803 14.7618 0.522794 13.8458 1.29533 13.1129C2.06787 12.3801 3.02219 12.0137 4.11283 12.0137" fill="#00A0E9"/>
<path d="M42.5352 16.9356C42.5352 15.8363 42.9214 14.8973 43.6712 14.1187C44.4438 13.3401 45.3527 12.9736 46.466 12.9736H71.1191C71.3463 12.9736 71.5963 12.9736 71.8235 13.0423H72.187C74.9364 13.111 77.1858 13.8668 78.9354 15.2638C80.7077 16.6608 81.9574 18.2409 82.7526 20.0273C83.5252 21.8136 83.9342 23.5999 83.9342 25.4091C83.9342 27.2183 83.5479 29.142 82.7981 30.9054C82.0256 32.6917 80.7531 34.2719 78.9808 35.6689C77.2085 37.0659 74.9364 37.7529 72.2098 37.7071H68.9151C67.8245 37.7071 66.8929 37.3178 66.1658 36.5162C65.3932 35.7605 64.9842 34.8444 64.9842 33.7452C64.9842 32.6459 65.3705 31.707 66.1203 30.9283C66.8929 30.1497 67.8245 29.7832 68.9151 29.7832H72.5506C73.3004 29.7832 73.9139 29.5313 74.3911 29.0504C74.8909 28.5466 75.2318 27.974 75.4817 27.3328C75.7089 26.6916 75.8452 26.0274 75.8452 25.3404C75.8452 24.6991 75.7316 24.0579 75.4817 23.4167C75.2545 22.7754 74.8909 22.2029 74.3911 21.6991C73.8912 21.1952 73.2777 20.9433 72.5506 20.8975H46.4887C45.3981 20.8975 44.4665 20.5082 43.7394 19.7066C42.9669 18.9509 42.5579 18.0348 42.5579 16.9356M60.1672 23.8518C61.2352 23.8976 62.0759 24.2869 62.7121 24.9969C63.3483 25.7297 63.6437 26.6229 63.5528 27.6992L63.1892 30.8367C62.803 33.6307 62.0759 36.2872 61.0079 38.7606C59.8719 41.2568 58.3041 43.3409 56.2818 45.0585C54.2596 46.7761 51.8965 47.715 49.1472 47.8753H46.5569C45.489 47.8295 44.6028 47.4631 43.8757 46.7303C43.1486 45.9974 42.7624 45.1043 42.7397 44.0279C42.7397 42.9286 43.1032 41.9668 43.8303 41.1881C44.5574 40.4095 45.4663 39.9743 46.5569 39.9514H48.1929C49.6698 39.8827 50.9876 39.3102 52.101 38.2338C53.2144 37.1575 53.9869 35.9666 54.4186 34.5925C54.8503 33.2413 55.1685 31.7528 55.3502 30.1268L55.5774 27.6992C55.7819 26.5999 56.3045 25.6839 57.168 24.9511C58.0314 24.2182 59.0084 23.8518 60.0991 23.8518" fill="#00A0E9"/>
<path d="M93.2034 39.9533L102.656 29.2355V26.327H96.2482C95.1575 26.327 94.2259 25.9377 93.4534 25.1819C92.6808 24.4033 92.3173 23.4643 92.3173 22.3651C92.3173 21.2658 92.6808 20.3039 93.4307 19.5253C94.2032 18.7696 95.1575 18.4031 96.2482 18.4031H102.656V15.1511C102.701 14.0748 103.087 13.1816 103.837 12.4488C104.587 11.7159 105.473 11.3266 106.541 11.3037C107.632 11.3037 108.586 11.6701 109.359 12.403C110.131 13.1358 110.563 14.0519 110.586 15.1511V21.4948C113.085 19.594 115.584 18.5863 118.106 18.426H121.56C123.832 18.426 125.786 19.1131 127.422 20.4643C129.058 21.8154 129.899 23.7621 129.945 26.3041V36.6097C130.058 38.7854 131.194 39.8388 133.353 39.8159C134.421 40.022 135.216 40.5717 135.761 41.5106C136.307 42.4267 136.511 43.4343 136.352 44.5107C135.716 46.8695 134.239 47.9459 131.899 47.7169C125.287 46.8924 121.992 43.1137 122.037 36.4036V29.2355C122.106 27.3805 121.219 26.4415 119.333 26.3957H118.22C116.743 26.4644 115.016 27.4721 113.062 29.35C112.131 30.266 111.29 31.0676 110.586 31.7775V44.9229C110.586 46.0222 110.177 46.9382 109.381 47.6711C108.586 48.4039 107.632 48.7704 106.541 48.7704C104.201 48.5642 102.906 47.2818 102.656 44.9229V40.8465L98.8384 45.2893C98.2477 45.9535 97.6115 46.4344 96.9298 46.7092C96.2482 46.984 95.3847 46.9153 94.385 46.4802C93.4079 46.0451 92.7263 45.3122 92.34 44.2817C91.9537 43.2511 91.9765 42.2206 92.4082 41.2129C92.6354 40.732 92.9081 40.3426 93.2262 40.022" fill="#00A0E9"/>
<path d="M208.653 19.5928C207.608 20.6463 207.608 22.341 208.653 23.3716C209.698 24.425 211.38 24.425 212.402 23.3716C213.447 22.3181 213.447 20.6234 212.402 19.5928C211.357 18.5394 209.676 18.5394 208.653 19.5928Z" fill="#00A0E9"/>
<path d="M219.06 21.5621C220.355 19.1116 220.014 16.02 217.969 13.9588C215.924 11.8977 212.834 11.5313 210.403 12.8596C207.926 11.2794 204.609 11.5542 202.45 13.7298C200.292 15.9055 200.019 19.2491 201.587 21.7453C200.542 23.6919 200.564 26.0508 201.678 27.9974L183.568 46.2269L185.954 48.6315L188.772 45.7688L192.362 49.3873L195.338 46.3872L191.748 42.7688L194.429 40.0664L198.019 43.6848L200.996 40.6847L197.406 37.0663L204.041 30.3791C204.2 30.4707 204.381 30.5852 204.541 30.6539L204.7 30.7226H204.768C205.086 30.883 205.381 30.9517 205.608 31.0204H205.631L205.881 31.0891H205.949C206.245 31.1578 206.517 31.1807 206.767 31.2036H207.085H207.154C207.449 31.2036 207.722 31.2036 207.949 31.1578L208.244 31.112H208.312C208.562 31.0433 208.835 30.9975 209.062 30.9059H209.108L209.403 30.7913H209.448C209.698 30.6768 209.948 30.5623 210.176 30.4478C212.652 32.028 215.97 31.7532 218.128 29.5776C220.287 27.4019 220.582 24.0354 218.992 21.5392M215.742 27.1729C214.561 28.3638 212.652 28.3638 211.448 27.1729C210.857 26.5775 209.948 26.5088 209.267 26.9897L209.153 27.0813L209.062 27.15L208.744 27.379L208.562 27.4935L208.244 27.631L208.04 27.6997L207.699 27.7913H207.494L207.154 27.8371H206.949L206.585 27.7913L206.426 27.7455C206.245 27.6997 206.131 27.6539 206.04 27.631L205.927 27.5852H205.904L205.518 27.379H205.472L205.449 27.3332C205.29 27.2187 205.154 27.1042 205.04 26.9897H205.018C203.882 25.8217 203.836 23.9896 204.881 22.7988C205.472 22.1346 205.427 21.1041 204.813 20.4857C203.632 19.272 203.632 17.3482 204.813 16.1574C205.995 14.9665 207.926 14.9665 209.108 16.1574C209.744 16.7986 210.744 16.8444 211.403 16.249C212.584 15.1955 214.402 15.2413 215.538 16.3864C216.674 17.5315 216.719 19.3865 215.651 20.5773C215.106 21.1957 215.083 22.0888 215.583 22.753C215.651 22.8446 215.765 22.9133 215.833 22.982C216.947 24.1728 216.924 26.0508 215.765 27.2187" fill="#00A0E9"/>
<path d="M186.068 6.08119C183.727 7.31787 181.932 9.19578 180.637 11.692C179.683 9.42479 177.843 7.56978 175.139 6.08119C177.434 4.89032 179.251 3.03531 180.637 0.539062C181.728 2.7605 183.546 4.5926 186.068 6.08119ZM195.134 9.74541C193.248 10.7531 191.589 12.7455 190.112 15.6998C189.203 13.0661 187.477 11.0966 184.954 9.74541C187.113 8.41713 188.817 6.37891 190.112 3.65365C190.703 4.89032 191.43 5.98959 192.316 6.90564C193.271 7.8217 194.225 8.78355 195.134 9.74541Z" fill="#00A0E9"/>
<path d="M150.031 36.5864V15.8836C149.986 14.7843 149.577 13.8682 148.804 13.1354C148.032 12.4026 147.078 12.0361 145.987 12.0361C144.919 12.0819 144.033 12.4713 143.283 13.1812C142.533 13.914 142.147 14.8072 142.102 15.8836V36.3574C142.147 39.3575 142.874 42.495 144.283 45.7699C145.419 47.831 147.123 48.4722 149.395 47.7165C150.372 47.2355 151.099 46.5027 151.531 45.5179C151.986 44.5332 151.986 43.5484 151.554 42.5637C150.531 40.2735 150.031 38.2811 150.031 36.5864Z" fill="#00A0E9"/>
<path d="M183.364 32.2342C182.592 31.6159 181.66 31.3182 180.569 31.3182H178.388V28.6616H180.433C181.524 28.6616 182.455 28.341 183.228 27.7227C184 27.0814 184.364 26.3028 184.364 25.3638C184.364 24.4249 184 23.692 183.251 23.0508C182.478 22.4095 181.524 22.1118 180.433 22.1118H178.388V19.5698H180.433C181.524 19.5698 182.455 19.2491 183.228 18.585C184 17.9438 184.364 17.1651 184.364 16.2949C184.364 15.4246 184 14.6002 183.251 13.936C182.478 13.2948 181.524 12.9971 180.433 12.9971H158.12C157.03 12.9971 156.098 13.3177 155.326 13.9818C154.553 14.6231 154.19 15.4017 154.19 16.3178C154.19 17.2338 154.576 17.9667 155.371 18.6308C156.121 19.272 157.03 19.5698 158.12 19.5698H170.458V22.1118H158.12C157.03 22.1118 156.098 22.4324 155.326 23.0508C154.553 23.692 154.19 24.4478 154.19 25.3638C154.19 26.2799 154.576 27.1043 155.371 27.7227C156.121 28.3639 157.03 28.6616 158.12 28.6616H170.458V31.3182H165.164C162.665 31.3182 160.529 31.822 158.757 32.8068C156.984 33.7915 155.712 34.9137 154.939 36.1504C154.167 37.387 153.758 38.6466 153.758 39.9062C153.758 41.2803 154.144 42.6085 154.894 43.8452C155.666 45.0819 156.939 46.1812 158.734 47.1201C160.415 48.0591 162.551 48.6087 165.141 48.7232H167.732C170.481 48.5629 172.526 47.9446 173.935 46.8911C175.321 45.8147 176.411 44.3948 177.184 42.5627C177.775 41.097 178.138 39.5169 178.297 37.8222H180.524C181.615 37.8222 182.546 37.5015 183.273 36.8832C184.046 36.3336 184.455 35.5549 184.455 34.5702C184.455 33.5854 184.069 32.8526 183.319 32.2342H183.364ZM166.664 39.9291V42.9521C166.664 43.5475 166.187 44.0284 165.596 44.0284C165.005 44.0284 164.528 43.5475 164.528 42.9521V39.9291C163.914 39.5627 163.505 38.8985 163.505 38.1199C163.505 36.9519 164.437 36.0129 165.596 36.0129C166.755 36.0129 167.686 36.9519 167.686 38.1199C167.686 38.8985 167.277 39.5627 166.641 39.9291H166.664Z" fill="#00A0E9"/>
</g>
<defs>
<clipPath id="clip0_8375_130110">
<rect width="220" height="51" fill="white"/>
</clipPath>
</defs>
</svg>
