<svg width="22" height="22" viewBox="0 0 22 22" fill="none" xmlns="http://www.w3.org/2000/svg">
<path d="M14.5849 15.9116L14.6732 16.0035L14.7634 15.9134L15.8884 14.7884L15.9765 14.7003L15.8887 14.6119L11.95 10.6485V5.675V5.55H11.825H10.325H10.2V5.675V11.3V11.3503L10.2349 11.3866L14.5849 15.9116ZM7.07548 20.3273C8.30828 20.8592 9.61685 21.125 11 21.125C12.3832 21.125 13.6917 20.8592 14.9245 20.3273C16.1552 19.7962 17.231 19.0707 18.1509 18.1509C19.0707 17.231 19.7962 16.1552 20.3273 14.9245C20.8592 13.6917 21.125 12.3832 21.125 11C21.125 9.61685 20.8592 8.30828 20.3273 7.07548C19.7962 5.84477 19.0707 4.76897 18.1509 3.84911C17.231 2.92925 16.1552 2.20379 14.9245 1.67273C13.6917 1.14077 12.3832 0.875 11 0.875C9.61685 0.875 8.30828 1.14077 7.07548 1.67273C5.84477 2.20379 4.76897 2.92925 3.84911 3.84911C2.92925 4.76897 2.20379 5.84477 1.67273 7.07548C1.14077 8.30828 0.875 9.61685 0.875 11C0.875 12.3832 1.14077 13.6917 1.67273 14.9245C2.20379 16.1552 2.92925 17.231 3.84911 18.1509C4.76897 19.0707 5.84477 19.7962 7.07548 20.3273ZM16.9116 16.9116C15.2681 18.5551 13.2998 19.375 11 19.375C8.70019 19.375 6.73188 18.5551 5.08839 16.9116C3.4449 15.2681 2.625 13.2998 2.625 11C2.625 8.70019 3.4449 6.73188 5.08839 5.08839C6.73188 3.4449 8.70019 2.625 11 2.625C13.2998 2.625 15.2681 3.4449 16.9116 5.08839C18.5551 6.73188 19.375 8.70019 19.375 11C19.375 13.2998 18.5551 15.2681 16.9116 16.9116Z" fill="#00A0E9" stroke="#00A0E9" stroke-width="0.25"/>
</svg>
