<svg width="22" height="19" viewBox="0 0 22 19" fill="none" xmlns="http://www.w3.org/2000/svg">
<path d="M0 19L11 0L22 19H0ZM2.6 17.5H19.4L11 3L2.6 17.5ZM11.1044 16.075C11.3181 16.075 11.4958 16.0027 11.6375 15.8581C11.7792 15.7135 11.85 15.5344 11.85 15.3206C11.85 15.1069 11.7777 14.9292 11.6331 14.7875C11.4885 14.6458 11.3094 14.575 11.0956 14.575C10.8819 14.575 10.7042 14.6473 10.5625 14.7919C10.4208 14.9365 10.35 15.1156 10.35 15.3294C10.35 15.5431 10.4223 15.7208 10.5669 15.8625C10.7115 16.0042 10.8906 16.075 11.1044 16.075ZM10.35 13.3H11.85V7.7H10.35V13.3Z" fill="#EB5757"/>
</svg>
