<svg width="16" height="16" viewBox="0 0 16 16" fill="none" xmlns="http://www.w3.org/2000/svg">
<mask id="mask0_4140_29420" style="mask-type:alpha" maskUnits="userSpaceOnUse" x="0" y="0" width="16" height="16">
<rect width="16" height="16" fill="#D9D9D9"/>
</mask>
<g mask="url(#mask0_4140_29420)">
<path d="M4.01681 13.7336C3.73894 13.7336 3.51121 13.6419 3.33361 13.4584C3.15547 13.2749 3.06641 13.0499 3.06641 12.7832V4.81679C3.06641 4.55012 3.15547 4.32506 3.33361 4.14159C3.51121 3.95812 3.73894 3.86639 4.01681 3.86639H5.71681V2.11679H6.30001V3.86639H9.75041V2.11679H10.2832V3.86639H11.9832C12.2611 3.86639 12.4888 3.95812 12.6664 4.14159C12.8445 4.32506 12.9336 4.55012 12.9336 4.81679V12.7832C12.9336 13.0499 12.8445 13.2749 12.6664 13.4584C12.4888 13.6419 12.2611 13.7336 11.9832 13.7336H4.01681ZM4.01681 13.2H11.9832C12.0947 13.2 12.192 13.1584 12.2752 13.0752C12.3584 12.992 12.4 12.8947 12.4 12.7832V7.61679H3.60001V12.7832C3.60001 12.8947 3.64161 12.992 3.72481 13.0752C3.80801 13.1584 3.90534 13.2 4.01681 13.2ZM3.60001 7.08319H12.4V4.81679C12.4 4.70532 12.3584 4.60799 12.2752 4.52479C12.192 4.44159 12.0947 4.39999 11.9832 4.39999H4.01681C3.90534 4.39999 3.80801 4.44159 3.72481 4.52479C3.64161 4.60799 3.60001 4.70532 3.60001 4.81679V7.08319ZM8.00001 9.69999C7.88907 9.69999 7.78641 9.65546 7.69201 9.56639C7.59761 9.47786 7.55041 9.37786 7.55041 9.26639C7.55041 9.14426 7.59467 9.03892 7.68321 8.95039C7.77227 8.86132 7.87787 8.81679 8.00001 8.81679C8.11094 8.81679 8.21361 8.86132 8.30801 8.95039C8.40241 9.03892 8.44961 9.13866 8.44961 9.24959C8.44961 9.37226 8.40534 9.47786 8.31681 9.56639C8.22774 9.65546 8.12214 9.69999 8.00001 9.69999ZM5.40001 9.69999C5.28907 9.69999 5.18641 9.65546 5.09201 9.56639C4.99761 9.47786 4.95041 9.37786 4.95041 9.26639C4.95041 9.14426 4.99467 9.03892 5.08321 8.95039C5.17227 8.86132 5.27787 8.81679 5.40001 8.81679C5.51094 8.81679 5.61361 8.86132 5.70801 8.95039C5.80241 9.03892 5.84961 9.13866 5.84961 9.24959C5.84961 9.37226 5.80534 9.47786 5.71681 9.56639C5.62774 9.65546 5.52214 9.69999 5.40001 9.69999ZM10.6 9.69999C10.4891 9.69999 10.3864 9.65546 10.292 9.56639C10.1976 9.47786 10.1504 9.37786 10.1504 9.26639C10.1504 9.14426 10.1947 9.03892 10.2832 8.95039C10.3723 8.86132 10.4779 8.81679 10.6 8.81679C10.7109 8.81679 10.8136 8.86132 10.908 8.95039C11.0024 9.03892 11.0496 9.13866 11.0496 9.24959C11.0496 9.37226 11.0053 9.47786 10.9168 9.56639C10.8277 9.65546 10.7221 9.69999 10.6 9.69999ZM8.00001 12C7.88907 12 7.78641 11.9555 7.69201 11.8664C7.59761 11.7779 7.55041 11.6725 7.55041 11.5504C7.55041 11.4389 7.59467 11.336 7.68321 11.2416C7.77227 11.1472 7.87787 11.1 8.00001 11.1C8.11094 11.1 8.21361 11.1445 8.30801 11.2336C8.40241 11.3221 8.44961 11.4277 8.44961 11.5504C8.44961 11.6725 8.40534 11.7779 8.31681 11.8664C8.22774 11.9555 8.12214 12 8.00001 12ZM5.40001 12C5.28907 12 5.18641 11.9555 5.09201 11.8664C4.99761 11.7779 4.95041 11.6725 4.95041 11.5504C4.95041 11.4389 4.99467 11.336 5.08321 11.2416C5.17227 11.1472 5.27787 11.1 5.40001 11.1C5.51094 11.1 5.61361 11.1445 5.70801 11.2336C5.80241 11.3221 5.84961 11.4277 5.84961 11.5504C5.84961 11.6725 5.80534 11.7779 5.71681 11.8664C5.62774 11.9555 5.52214 12 5.40001 12ZM10.6 12C10.4891 12 10.3864 11.9555 10.292 11.8664C10.1976 11.7779 10.1504 11.6725 10.1504 11.5504C10.1504 11.4389 10.1947 11.336 10.2832 11.2416C10.3723 11.1472 10.4779 11.1 10.6 11.1C10.7109 11.1 10.8136 11.1445 10.908 11.2336C11.0024 11.3221 11.0496 11.4277 11.0496 11.5504C11.0496 11.6725 11.0053 11.7779 10.9168 11.8664C10.8277 11.9555 10.7221 12 10.6 12Z" fill="#6C6C6C"/>
</g>
</svg>
