<svg width="16" height="16" viewBox="0 0 16 16" fill="none" xmlns="http://www.w3.org/2000/svg">
<mask id="mask0_4140_29428" style="mask-type:alpha" maskUnits="userSpaceOnUse" x="0" y="0" width="16" height="16">
<rect width="16" height="16" fill="#D9D9D9"/>
</mask>
<g mask="url(#mask0_4140_29428)">
<path d="M8.00002 11.4C9.21113 10.4444 10.1251 9.52777 10.742 8.64999C11.3585 7.77221 11.6667 6.92221 11.6667 6.09999C11.6667 5.42221 11.5418 4.84155 11.292 4.35799C11.0418 3.87488 10.7307 3.48332 10.3587 3.18332C9.98624 2.88332 9.58891 2.66666 9.16669 2.53332C8.74446 2.39999 8.35558 2.33332 8.00002 2.33332C7.64446 2.33332 7.25558 2.39999 6.83335 2.53332C6.41113 2.66666 6.01402 2.88332 5.64202 3.18332C5.26958 3.48332 4.95824 3.87488 4.70802 4.35799C4.45824 4.84155 4.33335 5.42221 4.33335 6.09999C4.33335 6.92221 4.6418 7.77221 5.25869 8.64999C5.87513 9.52777 6.78891 10.4444 8.00002 11.4ZM8.00002 12.25C6.54446 11.1611 5.45824 10.1055 4.74135 9.08332C4.02491 8.0611 3.66669 7.06666 3.66669 6.09999C3.66669 5.36666 3.79735 4.72488 4.05869 4.17466C4.31958 3.62488 4.65846 3.16377 5.07535 2.79132C5.4918 2.41932 5.95558 2.13888 6.46669 1.94999C6.9778 1.7611 7.48891 1.66666 8.00002 1.66666C8.51113 1.66666 9.02224 1.7611 9.53335 1.94999C10.0445 2.13888 10.5082 2.41932 10.9247 2.79132C11.3416 3.16377 11.6807 3.62488 11.942 4.17466C12.2029 4.72488 12.3334 5.36666 12.3334 6.09999C12.3334 7.06666 11.9749 8.0611 11.258 9.08332C10.5416 10.1055 9.45558 11.1611 8.00002 12.25ZM8.00002 6.99999C8.2778 6.99999 8.5138 6.90266 8.70802 6.70799C8.90269 6.51377 9.00002 6.27777 9.00002 5.99999C9.00002 5.72221 8.90269 5.48621 8.70802 5.29199C8.5138 5.09732 8.2778 4.99999 8.00002 4.99999C7.72224 4.99999 7.48624 5.09732 7.29202 5.29199C7.09735 5.48621 7.00002 5.72221 7.00002 5.99999C7.00002 6.27777 7.09735 6.51377 7.29202 6.70799C7.48624 6.90266 7.72224 6.99999 8.00002 6.99999ZM3.66669 14.3333V13.6667H12.3334V14.3333H3.66669Z" fill="#6C6C6C"/>
</g>
</svg>
